<?xml version="1.0" encoding="UTF-8"?>
<svg xmlns="http://www.w3.org/2000/svg" xmlns:xlink="http://www.w3.org/1999/xlink" viewBox="0 0 750 500">
  <defs>
    <style>
      .cls-1 {
        fill: #9cb0f7;
      }

      .cls-2 {
        clip-path: url(#clippath);
      }

      .cls-3 {
        fill: none;
      }

      .cls-4 {
        fill: #9baff6;
      }

      .cls-5 {
        fill: #9db2f4;
      }

      .cls-6 {
        fill: #99adf3;
      }

      .cls-7 {
        fill: #9db1f9;
      }
    </style>
    <clipPath id="clippath">
      <rect class="cls-3" x="1" y="0" width="750" height="500"/>
    </clipPath>
  </defs>
  <g id="BACKGROUND">
    <rect class="cls-3" width="750" height="500"/>
  </g>
  <g id="OBJECTS">
    <g>
      <rect class="cls-3" x="1" y="0" width="750" height="500"/>
      <g class="cls-2">
        <g>
          <path class="cls-5" d="m68.49,89.29c3.91,2.99,8.73,5.78,9.82,10.58.86,3.81-.96,7.97.38,11.64,2.13,5.81,9.35,5.99,13.02,10.2,4.61,5.29,3.35,14.09,7.01,20.56,1.68,2.97,3.91,5.78,6.97,7.28,3.06,1.5,7.09,1.39,9.56-.97,2.2-2.1,2.73-5.41,2.58-8.45-.32-6.64-3.38-13.1-8.3-17.57-4.5-4.08-10.49-6.59-13.98-11.56-2.8-3.99-3.6-9.15-2.9-13.97.45-3.15,12.21-28.89,14.45-28.03-12.84-4.89-26.58-7.41-40.32-7.41,1.29,0-3.29,13.42-3.51,14.64-1.02,5.5.45,9.39,5.23,13.05Z"/>
          <path class="cls-5" d="m157.09,147.39c-10.68,7.49-17.51,20.58-16.44,33.59.96,11.68,7.76,22.02,15.13,31.12,0-3.44,46.82-53.84,55.01-65.6-13.9-11.9-39.51-9.06-53.7.89Z"/>
          <g>
            <path class="cls-5" d="m197.12-14.83c-.11,1.99-.03,4.15.24,6.48,1.03,8.68,6.13,16.78,13.51,21.47,9.97,6.34,24.13,5.75,32.98-2.08,8.85-7.83,10.98-22.52,4.03-32.08-3.65-5.02-9.26-8.35-15.14-10.34-17.63-5.93-34.61-2.01-35.62,16.54Z"/>
            <path class="cls-5" d="m189.65,19.11c-4.23-.07-8.57.15-12.47,1.79-6.04,2.54-10.4,8.49-11.41,14.96-1.02,6.47,1.18,13.28,5.46,18.24,6.07,7.03,16.51,10.14,25.27,7.06,8.77-3.08,15.05-12.43,14.08-21.67-1.29-12.23-8.73-20.19-20.94-20.38Z"/>
            <path class="cls-5" d="m150.42,93.55c2.36,4.57,6.94,7.81,11.94,8.98,4.36,1.02,9.5.32,12.39-3.1,2.17-2.56,2.69-6.25,1.91-9.51-1.35-5.63-9-15.98-15.3-16.64-10.54-1.11-14.93,12.56-10.95,20.27Z"/>
          </g>
          <path class="cls-5" d="m230.79,129.57c13.06,2.07,26.27,3.17,39.48,3.3.86,12.76.86,25.57-.03,38.33,13.43,1.82,27,2.63,40.55,2.42-.83,14.17-1.66,28.34-2.49,42.51,3.87.62,7.74,1.24,11.61,1.85,1.9-18.76,3.81-37.51,5.71-56.27-13.78-1.74-27.56-3.47-41.34-5.21.61-12.12.74-24.26.4-36.38-11.79-1.3-23.59-2.6-35.38-3.89,1.52-13.61,3.05-27.22,4.58-40.82-3.97-.71-7.93-1.41-11.9-2.12,1.01.18-10.62,52.03-11.2,56.28Z"/>
          <path class="cls-5" d="m705.41,189.28c10.94-7.42,21.33-15.65,31.06-24.6,9.35,8.72,18.11,18.07,26.19,27.98,11.05-7.86,21.5-16.55,31.24-25.97l27.25,32.72c3.25-2.2,6.49-4.39,9.74-6.59-11.44-14.99-22.87-29.97-34.31-44.96-11.24,8.16-22.48,16.32-33.72,24.47-7.84-9.26-16.05-18.2-24.59-26.82-9.49,7.12-18.99,14.24-28.48,21.36-8.19-10.97-16.39-21.94-24.58-32.91-3.38,2.2-6.75,4.4-10.13,6.59.86-.56,27.84,45.22,30.32,48.72Z"/>
          <path class="cls-5" d="m370.52,7.28c-8.36-10.22-20.15-18.22-33.29-19.51-8.5-.84-17.09,1.16-24.93,4.54-11.44,4.94-21.72,13.05-27.96,23.83-6.24,10.78-8.12,24.31-3.73,35.97,1.81,4.82,4.6,9.19,7.37,13.53,3.34,5.23,6.68,10.46,10.02,15.69,1.09,1.55,25.05-10.79,27.87-12.05-6.57-8.09-11.85-17.23-15.55-26.97-1.7-4.46-3.08-9.11-3.16-13.88-.08-4.77,1.26-9.7,4.44-13.25,3.61-4.02,9.32-5.85,14.71-5.32,5.38.53,10.41,3.23,14.34,6.95,3.18,3.01,5.69,6.65,8.08,10.32,5.74,8.81,9.89,18.21,14.43,27.69.14.29.3.6.58.76.44.24.98.02,1.42-.2,8.57-4.17,17.15-8.33,25.72-12.5.23-.11.47-.24.57-.47.13-.3-.04-.64-.2-.92-3.37-5.92-6.53-11.92-9.81-17.89-1.62-2.96-3.38-5.85-5.26-8.65-1-1.49-5.67-6.06-5.67-7.67Z"/>
          <path class="cls-5" d="m776.07,247.98c-8.36-10.22-20.15-18.22-33.29-19.51-8.5-.84-17.09,1.16-24.93,4.54-11.44,4.94-21.72,13.05-27.96,23.83-6.24,10.78-8.12,24.31-3.73,35.97,1.81,4.82,4.6,9.19,7.37,13.53,3.34,5.23,6.68,10.46,10.02,15.69,1.09,1.55,25.05-10.79,27.87-12.05-6.57-8.09-11.85-17.23-15.55-26.97-1.7-4.46-3.08-9.11-3.16-13.88-.08-4.77,1.26-9.7,4.44-13.25,3.61-4.02,9.32-5.85,14.71-5.32,5.38.53,10.41,3.23,14.34,6.95,3.18,3.01,5.69,6.65,8.08,10.32,5.74,8.81,9.89,18.22,14.43,27.69.14.29.3.6.58.76.44.24.98.02,1.42-.2,8.57-4.17,17.15-8.33,25.72-12.5.23-.11.47-.24.57-.47.13-.3-.04-.64-.2-.92-3.37-5.92-6.53-11.92-9.81-17.89-1.62-2.96-3.38-5.85-5.26-8.65-1-1.49-5.67-6.06-5.67-7.67Z"/>
          <path class="cls-5" d="m345.1,109.94c16.11,15.42,28.9,34.29,37.25,54.97-9.64-24.11-19.47-49.77-15.11-75.38,9.47,22.23,16.47,45.51,20.84,69.28.45-12.97-1.34-25.92-1.19-38.89s2.48-26.46,10.18-36.9c3.78,22.8,5.77,45.89,5.94,69,5.48-23.21,13.3-47.25,31.03-63.21-.97,14.21-2.03,28.76-7.8,41.79-4.1,9.26-10.41,17.34-16.71,25.26,17.45-17.08,35.68-34.67,58.72-42.75-3.95,4.85-7.91,9.69-11.86,14.54-4.47,5.48-8.95,10.97-13.99,15.93-10.55,10.37-23.3,18.18-35.93,25.88-5.02,3.07-10.05,6.13-15.07,9.2-6.85,4.18-24.93-21.09-28.54-26.28-8.83-12.68-14.98-27.23-17.76-42.44Z"/>
          <path class="cls-5" d="m54.23,281.12c-16.83,14.64-36.78,25.65-58.13,32.09,24.89-7.41,51.34-14.86,76.44-8.18-23,7.41-46.82,12.26-70.89,14.45,12.87,1.63,25.93,1.02,38.84,2.35,12.9,1.33,26.12,4.88,35.82,13.5-23.05,1.69-46.22,1.56-69.25-.37,22.61,7.57,45.85,17.55,60.12,36.66-14.07-2.26-28.46-4.64-40.9-11.57-8.85-4.93-16.32-11.95-23.64-18.95,15.42,18.93,31.27,38.69,37.23,62.37-4.47-4.38-8.93-8.76-13.4-13.14-5.05-4.95-10.11-9.91-14.59-15.39-9.37-11.45-15.98-24.86-22.5-38.14-2.6-5.28-5.19-10.56-7.79-15.84-3.54-7.2,23.27-22.9,28.77-26.03,13.43-7.64,28.48-12.44,43.88-13.82Z"/>
          <path class="cls-5" d="m-13.08,163.1c6.49-10.15,16.25-18.72,28-21.35,21.73-4.86,42.58,11.32,56.13,28.99,12.96,16.91,22.79,36.22,28.84,56.65-15.01,5.58-29.57,12.38-43.49,20.31-7.64-13.31-15.29-26.62-22.93-39.93-3.81-6.64-9.5-14.26-17.08-13.14-8.99,1.33-11.22,13.21-10.73,22.29,1.07,19.76,4.59,39.39,10.47,58.29-13.95,2.69-27.89,5.38-41.84,8.07-1.48-21.02-2.95-42.03-4.43-63.05-1.29-18.35,7.32-41.9,17.06-57.14Z"/>
          <path class="cls-5" d="m47.19,32.76c23.7,13.98,54.13,6.47,77.19-6.1,10.25-5.59,20.04-12.83,25.84-22.96,4.63-8.09,6.42-17.46,7.91-26.65.88-5.38,1.67-10.92.48-16.24s-4.81-10.44-10.08-11.84c-6.05-1.61-12.45,2.12-16.13,7.19-3.68,5.06-5.34,11.26-7.43,17.16C120.13-12.98,112.08.24,99.61,7.72c-22.99,13.8-41.12.67-53.1-18.26-2.72-4.3-6.28-8.98-11.36-9.31-4.21-.27-8.13,2.81-9.88,6.65-1.75,3.84-1.7,8.27-1.06,12.44,2.14,13.84,10.94,26.42,22.97,33.52Z"/>
          <path class="cls-5" d="m38.57,51.54c1.23.79,1.85,1.71,1.65,2.8-.62,3.31-4.6,4.61-7.93,5.1-7.9,1.16-14.72-.07-22.36-.24-8.53-.19-18.46,3.18-26.54,5.64-1.81.55-3.81,1.32-4.53,3.06-.79,1.92.48,4.19,2.27,5.23,1.79,1.04,3.95,1.17,6.03,1.28,13.59.68,28.35-.83,41.6,1.24,2.92.46,6.5,1.89,6.52,4.85.01,2.77-3.23,4.35-5.99,4.6-8.61.8-15.66-1.63-24.1.39-7.65,1.84-16.08,1.66-22.33,7.27-2.1,1.88-3.84,4.62-3.27,7.39.93,4.6,6.89,5.73,11.58,5.86,7.91.22,15.82.45,23.73.67,7.3.21,15.07.56,21.06,4.75.68.47,1.37,1.07,1.49,1.89.23,1.59-1.7,2.53-3.27,2.9-16.64,3.91-34.09,2.74-50.93-.21-4.74-.83-9.62-1.87-13.53-4.68-3.91-2.82-6.59-7.88-5.21-12.49,1.3-4.35,5.85-7.55,5.89-12.09.05-4.63-4.51-7.78-6.85-11.77-3.32-5.68-1.79-13.35,2.55-18.31,7.9-9.04,21.55-8.49,32.51-9.21,5.28-.35,32.85-.49,39.98,4.07Z"/>
          <g>
            <path class="cls-5" d="m24.45,496.23c.32,3.38,1.71,7.21,4.95,8.22,2.53.79,5.22-.46,7.52-1.79,11.56-6.71,21.29-16.53,27.9-28.14,2.24-3.94,4.18-8.29,3.95-12.82-.22-4.53-3.2-9.19-7.67-10-6.13-1.1-20.6,7.87-25.13,12-7.63,6.95-12.48,22.53-11.53,32.52Z"/>
            <path class="cls-5" d="m33.42,442.49c10.22.84,27.46,1.03,33.84-9.24,4.06-6.55-.69-9.77-7-11.64-7.97-2.36-17.91-1.58-25.65,1.24-4.06,1.48-13.58,5.25-14.48,9.91-1.4,7.24,8.09,9.31,13.29,9.73Z"/>
            <path class="cls-5" d="m79.93,465.26c-1.56,6.4-2.63,13.56.71,19.24.93,1.58,2.24,3.02,3.96,3.69,4.36,1.69,8.79-2.09,11.83-5.65,7.87-9.19,15.22-20.12,14.77-32.22-.14-3.78-1.19-7.74-3.95-10.33-12.7-11.92-25.46,17.66-27.31,25.27Z"/>
            <path class="cls-5" d="m66.3,522.29c1.44,2.45,3.25,4.76,5.68,6.23,2.43,1.47,5.55,2.01,8.15.86,4.51-1.98,5.72-7.81,5.47-12.73-.4-7.96-6.84-27.57-18.42-22.89-9.89,4-4.69,22.03-.87,28.53Z"/>
            <path class="cls-5" d="m105.83,492.73c-3.71,2.94-7.39,7.25-6.32,11.87.8,3.46,4.18,5.85,7.66,6.55,3.48.7,7.08.03,10.55-.69,10.36-2.16,21.07-5.06,28.92-12.17,2.55-2.31,4.8-5.15,5.57-8.51.76-3.36-.26-7.28-3.12-9.2-10.91-7.31-34.95,5.59-43.25,12.16Z"/>
            <path class="cls-5" d="m125.52,462.22c1.31,2.39,3.45,4.82,6.17,4.64,1.53-.1,2.87-1.03,4.05-2,10.9-8.91,15.79-24.54,11.89-38.07-.69-2.39-1.68-4.79-3.51-6.48-8.51-7.84-16.18,3.66-18.62,10.36-3.72,10.19-5.43,21.58.02,31.54Z"/>
            <path class="cls-5" d="m97.2,420.43c3.47,1.03,7.07,1.85,10.69,1.65s7.29-1.56,9.67-4.29c.46-.53.89-1.14.99-1.84.11-.76-.17-1.52-.48-2.22-6.09-14.3-23.43-25.85-39.35-22.97-26.66,4.83,9.12,26.91,18.48,29.67Z"/>
          </g>
          <path class="cls-5" d="m110.83,285.34c3.45.28,7.14,2.58,9.91,5,4.15,3.62,9.35,7.85,14.52,5.94,9.53-3.51,4.62-21.71,14.11-25.34,8.83-3.38,18.42,10.99,26.36,5.85,7.25-4.68.81-18.49,7.8-23.56,5.74-4.17,14.8,2.1,20.63-1.96,5.83-4.06,2.64-14.1,7.3-19.46,4.83-5.56,15.46-3.17,19.44-9.36,2.53-3.94.84-9.06.13-13.69-.71-4.63.97-10.8,5.64-11.09,1.56-.1,3.07.55,4.42,1.33,6.63,3.84,10.83,11.53,10.48,19.19-.31,6.73-4.22,13.59-10.09,17.03-5.19,3.04-13.55,1.51-17.33,6.92-2.95,4.22-.86,9.96-1.1,15.1-.31,6.49-5.33,12.35-11.41,14.35-5.89,1.93-13.92-2.61-18.74,2.13-4.05,3.99-1.72,10.95-3.56,16.33-1.87,5.47-8.76,8.58-14.11,6.38-3.19-1.32-5.77-4.19-9.2-4.57-3.86-.43-7.34,2.52-9.34,5.85-2,3.33-3.05,7.17-5.15,10.44-5.49,8.52-17.63,11.19-27.05,7.45-5.97-2.37-17.23-12.34-20.14-18.13-1.77-3.53-1.53-8.4,1.62-10.78,1.46-1.11,3.13-1.47,4.85-1.33Z"/>
          <path class="cls-5" d="m646.85,75.21c3.45.28,7.14,2.58,9.91,5,4.15,3.62,9.35,7.85,14.51,5.94,9.53-3.51,4.62-21.71,14.11-25.34,8.83-3.38,18.42,10.99,26.36,5.85,7.25-4.68.81-18.49,7.8-23.56,5.74-4.17,14.8,2.1,20.63-1.96,5.83-4.06,2.64-14.1,7.3-19.46,4.83-5.56,15.46-3.17,19.44-9.36,2.53-3.94.84-9.06.13-13.69-.71-4.63.97-10.8,5.64-11.09,1.56-.1,3.07.55,4.42,1.33,6.63,3.84,10.83,11.53,10.48,19.19-.31,6.73-4.22,13.59-10.09,17.03-5.19,3.04-13.55,1.51-17.33,6.92-2.95,4.22-.86,9.96-1.1,15.1-.31,6.49-5.33,12.36-11.41,14.35-5.89,1.93-13.92-2.61-18.74,2.13-4.05,3.99-1.72,10.95-3.56,16.33-1.87,5.47-8.76,8.58-14.11,6.38-3.19-1.32-5.77-4.19-9.19-4.57-3.86-.43-7.34,2.52-9.34,5.85s-3.05,7.17-5.15,10.44c-5.49,8.52-17.63,11.19-27.05,7.45-5.97-2.37-17.23-12.34-20.14-18.13-1.77-3.53-1.53-8.4,1.62-10.78,1.46-1.11,3.13-1.47,4.85-1.33Z"/>
          <path class="cls-5" d="m446.4,7.12c5.92.58,11.46,2.3,14.63,7.08,7.16,10.79-4.9,26.21.75,37.85,7.42,15.27,34.71,7.03,44.37,20.99,4.62,6.67,3.07,15.59,2.7,23.7-.36,8.11,2.03,18.01,9.82,20.27,4.96,1.44,10.43-1.06,13.78-4.99,3.35-3.93,4.97-9.03,6.14-14.06,3.99-17.22-1.31-37.03-19.26-43.71-8.93-3.32-20-3.02-26.16-10.28-8.21-9.68-1.4-24.48-3.33-37.03-3.44-22.33-29.39-27.35-47.95-29.35-6.69-.72-13.8-.7-19.73,2.49-5.93,3.19-10.13,10.41-7.93,16.77,2.89,8.34,13.74,10.16,22.57,10.03,3.09-.05,6.39-.07,9.59.25Z"/>
          <path class="cls-5" d="m539.34,374.76c1.21-4.77,1.86-10.3,5.84-13.2,3.16-2.3,7.7-2.27,10.54-4.95,4.5-4.25,1.81-10.96,4.23-15.99,3.04-6.33,11.62-8.65,16.12-14.56,2.07-2.72,3.77-5.87,3.93-9.28.17-3.41-1.53-7.07-4.67-8.4-2.79-1.19-6.05-.37-8.78.97-5.97,2.92-10.7,8.28-12.86,14.57-1.97,5.74-1.91,12.24-5.09,17.41-2.56,4.15-6.98,6.92-11.69,8.19-3.07.83-31.36.2-31.46-2.2.58,13.73,3.69,27.35,9.13,39.97-.51-1.18,13.62-2.28,14.84-2.56,5.45-1.24,8.45-4.12,9.92-9.96Z"/>
          <path class="cls-5" d="m382.45,259.65c9.5-2.58,17.71-10.12,20.29-19.63,2.31-8.54.13-17.63-2.76-25.99-.88,2.44-47.05,26.21-55.88,32.47,6.82,12.02,25.73,16.58,38.36,13.16Z"/>
          <g>
            <path class="cls-5" d="m637.55,390.04c1.87-.69,3.83-1.61,5.86-2.79,7.56-4.38,13-12.27,14.39-20.89,1.89-11.67-4.25-24.44-14.94-29.48-10.69-5.04-25.02-1.19-31.06,8.97-3.17,5.34-4.02,11.8-3.51,17.99,1.52,18.54,11.83,32.59,29.27,26.19Z"/>
            <path class="cls-5" d="m671.68,383.48c1.61,3.91,3.52,7.81,6.57,10.75,4.72,4.54,11.91,6.2,18.25,4.57,6.35-1.62,11.74-6.33,14.6-12.22,4.06-8.36,2.79-19.17-3.5-26.01s-17.36-8.92-25.47-4.37c-10.73,6.02-15.09,16-10.45,27.29Z"/>
            <path class="cls-5" d="m755.57,390.12c3.26-3.97,4.43-9.46,3.53-14.52-.78-4.41-3.46-8.85-7.74-10.16-3.21-.98-6.8,0-9.49,2-4.64,3.47-11.12,14.58-9.24,20.63,3.14,10.13,17.43,8.76,22.95,2.05Z"/>
          </g>
          <path class="cls-5" d="m398.14,559.18c-3.26-12.81-7.46-25.38-12.57-37.58,11.38-5.83,23.15-10.89,35.22-15.12-3.63-13.06-8.25-25.84-13.8-38.21,13.35-4.83,26.69-9.67,40.04-14.5-.96-3.8-1.92-7.6-2.88-11.4-17.98,5.66-35.96,11.32-53.95,16.98,3.85,13.34,7.7,26.69,11.55,40.03-11.37,4.23-22.58,8.9-33.58,14.01,3.47,11.35,6.93,22.7,10.4,34.04-13.1,3.98-26.21,7.95-39.31,11.93l2.76,11.77c-.23-.99,51.99-10.8,56.13-11.95Z"/>
          <path class="cls-5" d="m230.61,479.13c-6.08,11.72-8.78,25.71-4.78,38.29,2.59,8.14,7.82,15.24,14.02,21.11,9.05,8.56,20.57,14.79,32.94,16.27,12.37,1.48,25.54-2.15,34.51-10.79,3.71-3.57,6.62-7.86,9.51-12.12,3.48-5.14,6.97-10.27,10.45-15.41.99-1.61-19.81-18.75-22.08-20.84-4.83,9.23-11.15,17.69-18.63,24.95-3.42,3.32-7.15,6.43-11.5,8.39s-9.41,2.68-13.93,1.15c-5.12-1.73-9.06-6.25-10.69-11.41s-1.14-10.84.72-15.92c1.51-4.11,3.86-7.85,6.29-11.5,5.82-8.75,12.83-16.28,19.74-24.19.21-.24.44-.51.47-.83.05-.5-.36-.91-.74-1.23-7.22-6.23-14.43-12.46-21.65-18.69-.19-.16-.4-.34-.65-.34-.33,0-.57.29-.77.55-4.11,5.44-8.37,10.71-12.56,16.08-2.08,2.66-4.04,5.41-5.87,8.25-.97,1.5-3.33,7.61-4.8,8.24Z"/>
          <path class="cls-5" d="m327.51,468.16c7.8-20.89,20.09-40.09,35.78-55.94-18.34,18.39-38.03,37.55-63.27,43.66,16.68-17.48,35.3-33.11,55.41-46.52-12.09,4.71-23.28,11.47-35.25,16.46-11.98,4.99-25.29,8.17-37.92,5.23,19.45-12.48,39.88-23.43,61.04-32.71-23.49,4.13-48.67,6.45-70.32-3.54,13.44-4.72,27.22-9.5,41.47-9.35,10.13.11,20.04,2.71,29.81,5.37-22.59-9.28-45.94-19.08-62.48-37.05,6.01,1.72,12.03,3.44,18.04,5.15,6.8,1.94,13.62,3.89,20.16,6.56,13.7,5.59,25.9,14.22,37.97,22.78,4.8,3.4,9.6,6.81,14.4,10.21,6.55,4.64-9.52,31.23-12.87,36.6-8.16,13.12-19.1,24.52-31.97,33.08Z"/>
          <path class="cls-5" d="m632.92,464.58c20.09,9.67,38.1,23.66,52.45,40.73-16.64-19.94-33.93-41.29-37.71-66.99,15.89,18.21,29.76,38.17,41.28,59.42-3.59-12.47-9.31-24.23-13.18-36.61-3.87-12.38-5.83-25.93-1.75-38.24,10.65,20.5,19.7,41.85,27.02,63.76-1.98-23.77-1.99-49.05,9.92-69.71,3.48,13.82,6.98,27.97,5.53,42.15-1.03,10.07-4.53,19.71-8.07,29.2,11.3-21.65,23.19-44.01,42.59-58.84-2.26,5.83-4.52,11.67-6.78,17.5-2.55,6.59-5.11,13.2-8.37,19.48-6.82,13.13-16.52,24.5-26.14,35.74-3.83,4.47-7.65,8.94-11.48,13.41-5.22,6.1-30.23-12.33-35.28-16.15-12.32-9.32-22.68-21.25-30.03-34.85Z"/>
          <path class="cls-5" d="m568.37,63.89c-11.88-1.95-23.62-7.53-30.68-17.29-13.05-18.04-6.43-43.59,4.45-63.02,10.41-18.59,24.27-35.25,40.65-48.87,11.06,11.59,23.06,22.28,35.84,31.93-9.21,12.28-18.41,24.56-27.62,36.84-4.59,6.13-9.35,14.37-5.32,20.88,4.78,7.74,16.57,5.09,24.72,1.05,17.73-8.79,34.37-19.78,49.41-32.65,7.98,11.75,15.96,23.5,23.95,35.25-18.72,9.66-37.45,19.32-56.17,28.98-16.35,8.43-41.38,9.83-59.23,6.9Z"/>
          <path class="cls-5" d="m653.89,253.47c12.65-24.43,3.47-54.4-10.35-76.74-6.14-9.93-13.91-19.3-24.34-24.54-8.33-4.18-17.78-5.45-27.05-6.43-5.42-.58-11-1.07-16.24.41-5.25,1.48-10.16,5.38-11.27,10.72-1.27,6.13,2.81,12.31,8.06,15.71,5.26,3.4,11.54,4.71,17.54,6.47,13.95,4.09,27.59,11.4,35.75,23.44,15.04,22.19,2.93,41.02-15.31,54.02-4.15,2.96-8.62,6.76-8.67,11.86-.04,4.22,3.25,7.96,7.18,9.5,3.93,1.54,8.35,1.25,12.48.37,13.7-2.9,25.78-12.38,32.2-24.78Z"/>
          <path class="cls-5" d="m482.1,438.91c.36-2.22,1.3-3.67,2.97-4.05,5.07-1.14,9.35,3.72,12.08,8.14,6.47,10.51,8.88,20.94,13.31,31.89,4.94,12.23,15.79,24.26,24.21,34.23,1.88,2.23,4.2,4.61,7.11,4.55,3.2-.06,5.65-3.24,6.03-6.42.39-3.18-.75-6.33-1.87-9.33-7.34-19.7-18.49-39.74-23.64-59.81-1.14-4.43-1.28-10.38,2.91-12.21,3.93-1.71,8.14,1.93,10.19,5.69,6.39,11.73,7.24,23.23,15.27,33.98,7.28,9.74,12.17,21.82,23.95,27.26,3.96,1.83,8.91,2.62,12.49.13,5.95-4.13,3.92-13.28,1.25-20.01-4.51-11.36-9.02-22.73-13.53-34.09-4.16-10.49-8.41-21.74-6.11-32.79.26-1.25.69-2.6,1.77-3.27,2.12-1.3,4.63.87,6.11,2.87,15.7,21.24,24.7,46.72,30.8,72.42,1.72,7.24,3.22,14.8,1.61,22.06s-7.16,14.16-14.55,15.02c-6.97.81-14.28-3.69-20.75-.99-6.6,2.76-8.28,11.15-12.53,16.9-6.03,8.18-17.86,10.69-27.54,7.56-17.66-5.7-25.2-25.41-32.93-40.53-3.72-7.28-20.74-46.33-18.63-59.24Z"/>
          <g>
            <path class="cls-5" d="m556.92,283.84c2.98-1.63,5.95-4.42,5.6-7.8-.27-2.64-2.48-4.62-4.61-6.2-10.73-7.96-23.59-13.03-36.87-14.51-4.51-.5-9.27-.56-13.34,1.43-4.07,1.99-7.18,6.57-6.15,10.99,1.41,6.07,15.37,15.81,20.95,18.35,9.4,4.26,25.63,2.57,34.43-2.26Z"/>
            <path class="cls-5" d="m504,296.83c-3.27-9.72-9.9-25.63-21.86-27.43-7.62-1.15-8.7,4.49-7.93,11.03.98,8.26,5.62,17.08,11.27,23.08,2.96,3.14,10.19,10.4,14.83,9.38,7.21-1.58,5.35-11.11,3.69-16.06Z"/>
            <path class="cls-5" d="m506.54,245.1c6.49-1.1,13.49-2.94,17.39-8.25,1.09-1.48,1.89-3.26,1.82-5.09-.17-4.67-5.4-7.25-9.86-8.63-11.56-3.6-24.5-6.03-35.43-.84-3.41,1.62-6.64,4.15-7.93,7.71-5.93,16.38,26.28,16.42,34,15.11Z"/>
            <path class="cls-5" d="m564.32,235.09c1.68-2.29,3.08-4.87,3.48-7.68.4-2.81-.35-5.89-2.43-7.82-3.6-3.36-9.44-2.17-13.86,0-7.16,3.51-22.63,17.18-13.75,25.97,7.58,7.51,22.09-4.39,26.55-10.47Z"/>
            <path class="cls-5" d="m521.54,210.46c4.17,2.25,9.58,3.92,13.4,1.12,2.86-2.1,3.72-6.15,2.99-9.62s-2.77-6.51-4.81-9.42c-6.08-8.67-12.98-17.36-22.61-21.76-3.13-1.43-6.63-2.37-10.02-1.75-3.39.62-6.58,3.12-7.21,6.5-2.41,12.91,18.94,29.9,28.26,34.92Z"/>
            <path class="cls-5" d="m485.74,204.42c1.68-2.14,3.07-5.08,1.83-7.5-.7-1.36-2.08-2.23-3.44-2.94-12.49-6.5-28.78-4.81-39.67,4.12-1.92,1.58-3.74,3.44-4.57,5.79-3.84,10.92,9.75,13.42,16.87,13.01,10.83-.61,21.97-3.54,28.97-12.48Z"/>
            <path class="cls-5" d="m458.54,246.95c-.43-3.6-1.09-7.23-2.71-10.47-1.62-3.24-4.31-6.08-7.76-7.19-.67-.22-1.4-.36-2.08-.18-.74.2-1.32.76-1.85,1.32-10.73,11.24-14.49,31.74-5.55,45.22,14.97,22.58,21.12-19.01,19.96-28.7Z"/>
          </g>
          <path class="cls-5" d="m424.48,406.71c-.89-3.35.05-7.59,1.4-11.01,2.02-5.12,4.27-11.43.75-15.67-6.49-7.81-22.01,2.9-28.6-4.82-6.13-7.19,4.2-21.04-3.29-26.8-6.84-5.27-17.7,5.42-24.81.53-5.85-4.02-2.97-14.65-8.74-18.78-5.78-4.14-14.17,2.23-20.78-.38-6.85-2.7-8.15-13.51-15.32-15.19-4.56-1.07-8.82,2.24-12.95,4.45-4.13,2.21-10.5,2.7-12.34-1.61-.61-1.44-.51-3.08-.22-4.61,1.41-7.53,7.25-14.06,14.58-16.29,6.45-1.96,14.22-.57,19.42,3.81,4.6,3.87,5.95,12.26,12.31,14.02,4.96,1.37,9.67-2.52,14.6-4.01,6.22-1.88,13.42.89,17.34,5.96,3.78,4.91,2.19,14,8.27,16.95,5.12,2.48,10.89-2.04,16.58-2.1,5.78-.06,11.02,5.39,10.72,11.16-.18,3.44-2.02,6.84-1.23,10.19.88,3.78,4.83,6.07,8.63,6.84,3.81.77,7.78.47,11.56,1.37,9.86,2.33,16.44,12.88,16.06,23-.24,6.41-5.87,20.36-10.36,25.04-2.73,2.85-7.4,4.24-10.7,2.08-1.53-1.01-2.44-2.46-2.88-4.13Z"/>
          <path class="cls-5" d="m200.48,409.49c-1.8-5.66-2.42-11.44.72-16.24,7.08-10.84,26.01-5.85,34.48-15.65,11.1-12.85-7.26-34.67,1.75-49.06,4.31-6.88,13.11-8.98,20.7-11.85,7.59-2.87,15.74-8.98,14.74-17.03-.64-5.13-5.1-9.16-10.03-10.69-4.93-1.53-10.26-1-15.34-.08-17.4,3.14-33.5,15.83-32.54,34.96.47,9.51,5.13,19.56.89,28.09-5.65,11.37-21.94,10.96-32.7,17.69-19.15,11.98-13.51,37.8-8.02,55.65,1.98,6.43,4.8,12.95,10.08,17.14,5.27,4.18,13.57,5.19,18.54.66,6.52-5.95,3.91-16.64.3-24.7-1.27-2.82-2.59-5.85-3.56-8.9Z"/>
          <path class="cls-1" d="m598.92,100.99c-3.09-2.07-6.54-3.6-10.16-4.46-3.25-.77-7.32-1.5-10.45.02-2.47,1.2-3.82,3.8-4.14,6.43-.36,3,.66,5.81,2.53,8.14,2.06,2.58,4.97,4.36,7.84,5.91,3.44,1.86,7.06,3.57,10.9,4.44,3.4.77,7.26,1,10.56-.33,3.12-1.27,5.2-4.03,4.47-7.5-.77-3.66-3.99-6.94-6.6-9.44-2.88-2.75-6.18-5.06-9.76-6.83-1.72-.85-3.25,1.73-1.51,2.59,5.1,2.52,9.69,6.17,13.08,10.76,1.55,2.1,3.15,5.15.42,7.02-2.31,1.59-5.65,1.55-8.31,1.14-3.18-.48-6.23-1.69-9.11-3.09-2.55-1.25-5.18-2.58-7.41-4.36-1.95-1.55-3.72-3.61-4.1-6.15-.28-1.92.15-4.26,1.72-5.56,2.31-1.9,6.46-.92,9.08-.3,3.39.8,6.55,2.22,9.44,4.16,1.61,1.08,3.11-1.52,1.51-2.59h0Z"/>
          <path class="cls-4" d="m608.34,434.95c-3.09-2.07-6.54-3.6-10.16-4.46-3.25-.77-7.32-1.5-10.45.02-2.47,1.2-3.82,3.8-4.14,6.43-.36,3,.66,5.81,2.53,8.14,2.06,2.58,4.97,4.36,7.84,5.91,3.44,1.86,7.06,3.57,10.9,4.44,3.4.77,7.26,1,10.56-.33,3.12-1.27,5.2-4.03,4.47-7.5-.77-3.66-3.99-6.94-6.6-9.44-2.88-2.75-6.18-5.06-9.76-6.83-1.72-.85-3.25,1.73-1.51,2.59,5.1,2.52,9.69,6.17,13.08,10.76,1.55,2.1,3.15,5.15.42,7.02-2.31,1.59-5.65,1.55-8.31,1.14-3.18-.48-6.23-1.69-9.11-3.09-2.55-1.25-5.18-2.58-7.41-4.36-1.95-1.55-3.72-3.61-4.1-6.15-.28-1.92.15-4.26,1.72-5.56,2.31-1.9,6.46-.92,9.08-.3,3.39.8,6.55,2.22,9.44,4.16,1.61,1.08,3.11-1.52,1.51-2.59h0Z"/>
          <path class="cls-1" d="m7.56,142.64c-3.09-2.07-6.54-3.6-10.16-4.46-3.25-.77-7.32-1.5-10.45.02-2.47,1.2-3.82,3.8-4.14,6.43-.36,3,.66,5.81,2.53,8.14,2.06,2.58,4.97,4.36,7.84,5.91,3.44,1.86,7.06,3.57,10.9,4.44,3.4.77,7.26,1,10.56-.33,3.12-1.27,5.2-4.03,4.47-7.5-.77-3.66-3.99-6.94-6.6-9.44-2.88-2.75-6.18-5.06-9.76-6.83-1.72-.85-3.25,1.73-1.51,2.59,5.1,2.52,9.69,6.17,13.08,10.76,1.55,2.1,3.15,5.15.42,7.02-2.31,1.59-5.65,1.55-8.31,1.14-3.18-.48-6.23-1.69-9.11-3.09-2.55-1.25-5.18-2.58-7.41-4.36-1.95-1.55-3.72-3.61-4.1-6.15-.28-1.92.15-4.26,1.72-5.56,2.31-1.9,6.46-.92,9.08-.3,3.39.8,6.55,2.22,9.44,4.16,1.61,1.08,3.11-1.52,1.51-2.59h0Z"/>
          <g>
            <path class="cls-1" d="m640.15,296.91c-3.23.22-5.72,2.79-6.42,5.88s.43,6.55,3.48,7.89,6.54.45,8.81-1.78c2.44-2.37,2.73-6.14.67-8.86-2.3-3.05-6.7-4.55-10.17-2.57-.7.4-.94,1.36-.54,2.05s1.35.94,2.05.54c.14-.08.28-.15.43-.23-.26.13.03-.01.14-.05.15-.05.3-.09.45-.13.12-.03.62-.09.24-.06.3-.02.59-.04.88-.03.14,0,.28.02.41.03-.38-.02.15.03.25.05.29.06.58.14.87.24.1.03.5.23.2.07.14.07.29.14.43.21.29.15.55.33.82.51.22.14-.15-.14.13.1.14.12.27.24.4.36.1.1.2.2.29.3.04.04.33.39.23.26s.12.17.16.23c.1.15.19.3.27.46.03.05.23.47.15.3s.07.19.09.26c.05.15.09.3.13.45.03.14.07.51.05.18.02.32.02.64.01.96,0,.27.06-.24-.02.1-.04.16-.07.33-.12.49-.04.14-.1.28-.15.41.1-.28.02-.05-.05.09-.06.11-.12.22-.19.33-.04.06-.08.12-.12.18,0,.01-.21.3-.07.11.12-.16-.16.19-.2.23-.09.1-.18.19-.27.28-.11.1-.22.2-.33.3-.06.05-.11.09-.17.14.15-.12.14-.1-.01,0-.23.16-.47.31-.72.44-.12.06-.23.12-.35.18-.05.02-.27.12-.08.04.21-.09-.09.03-.14.05-.26.1-.53.18-.81.24-.15.03-.29.06-.44.09-.05.01-.11.02-.17.03.4-.07.03,0-.04,0-.26.02-.52.03-.77.02-.15,0-.29-.02-.44-.03.37.03-.06-.02-.19-.05-.27-.06-.52-.15-.78-.24.31.11-.02-.01-.14-.08-.13-.07-.26-.14-.38-.22-.06-.04-.12-.08-.18-.13.04.03.24.21.04.03-.1-.09-.2-.17-.29-.27-.1-.1-.19-.23-.3-.33-.12-.11.06.08.07.09-.06-.09-.13-.18-.18-.27-.07-.11-.13-.21-.19-.33-.03-.05-.21-.46-.13-.26s-.05-.15-.07-.22c-.05-.15-.09-.31-.12-.47-.03-.12-.04-.25-.07-.37.08.41,0-.02,0-.14-.02-.29-.01-.58.01-.87,0-.07.02-.15.02-.22-.02.37-.02.11,0,.02.03-.16.06-.33.1-.49.08-.33.2-.63.3-.95-.11.31.01-.02.07-.15.07-.15.15-.29.23-.44s.17-.28.26-.42c.04-.06.09-.12.13-.18-.1.15-.12.14,0,0,.2-.23.41-.45.64-.66.05-.05.11-.09.16-.14-.13.11-.16.12,0,0,.13-.09.26-.18.4-.26.06-.04.12-.07.19-.1.04-.02.32-.16.11-.06-.18.08-.02,0,.02,0,.1-.03.2-.07.3-.1.14-.04.28-.08.42-.11.07-.01.14-.03.22-.04-.24.04-.15.02.04,0,.81-.05,1.5-.65,1.5-1.5,0-.77-.69-1.55-1.5-1.5h0Z"/>
            <path class="cls-1" d="m657.1,305.7c-4.34.24-8.01,3.75-8.84,7.96-.9,4.54,1.68,8.6,5.91,10.24s8.85.25,11.41-3.43c2.47-3.55,2.53-8.66-.16-12.1-2.99-3.83-8.83-5.17-13.05-2.61-1.65,1-.14,3.6,1.51,2.59,2.56-1.55,6.04-1.06,8.3.94s2.84,5.49,1.58,8.31-4.26,4.48-7.32,3.85-5.48-2.97-5.39-6.08,2.77-6.49,6.04-6.67c1.92-.11,1.93-3.11,0-3h0Z"/>
            <path class="cls-1" d="m655.83,287.18c-2.62-2.54-6.64-.02-7.47,2.97s.73,6.56,3.38,8.29c2.85,1.86,6.62,1.13,8.83-1.37,1.12-1.27,1.85-2.84,1.92-4.54.07-1.59-.55-3.09-1.57-4.29-2.09-2.46-6.07-3.32-8.84-1.53-.68.44-.96,1.33-.54,2.05.4.68,1.37.98,2.05.54.11-.07.22-.14.34-.21.04-.02.43-.2.12-.07.2-.08.41-.14.62-.19.13-.03.25-.05.38-.07-.36.06.06,0,.12,0,.26-.01.52,0,.78.02-.36-.03.07.01.12.02.13.03.26.05.39.09.21.06.42.13.63.2-.31-.11.09.04.13.06.12.06.24.12.35.19.08.04.15.09.23.14.05.03.49.35.24.15.17.14.34.29.49.44.09.09.18.19.27.29.27.3-.13-.23.08.11.11.19.22.37.33.56.2.35-.07-.26.06.12.06.17.11.33.15.51.02.09.04.19.06.28-.05-.29,0,.19,0,.21,0,.15,0,.3,0,.45,0,.44.07-.23-.02.2-.13.65-.23.94-.5,1.4-.51.9-1.17,1.48-2.15,1.99-.76.39-1.73.43-2.63.14-.02,0-.45-.18-.18-.06-.09-.04-.17-.08-.26-.13-.26-.13-.5-.29-.74-.46.23.17-.14-.12-.15-.13-.07-.06-.14-.13-.21-.2-.1-.1-.21-.21-.3-.32-.07-.07-.13-.15-.19-.22.08.11.07.1-.03-.04-.14-.2-.27-.4-.39-.62-.07-.13-.14-.26-.2-.39-.21-.4.07.24-.08-.18-.08-.23-.16-.46-.21-.7-.03-.14-.06-.28-.09-.43.05.3-.01-.19-.02-.25,0-.12,0-.24,0-.36,0-.06.04-.63,0-.33.04-.28.11-.56.2-.83-.1.3.05-.11.07-.15.09-.16.19-.32.3-.47-.04.06-.16.17.03-.03.13-.13.26-.27.4-.4.29-.29-.21.11.14-.11.12-.07.23-.15.35-.21.05-.02.44-.18.13-.07.16-.06.32-.1.49-.14-.33.07-.05.03.03.01.06,0,.12,0,.18,0-.2-.03-.21-.03-.04,0,.09.03.36.19.09.02.07.04.14.08.21.13-.13-.1-.14-.1,0,.02,1.39,1.34,3.51-.77,2.12-2.12h0Z"/>
          </g>
          <g>
            <path class="cls-7" d="m174.27,136.22c-1.94,1.74-1.99,4.62-.95,6.84s3.7,3.74,6.21,2.98,4.33-3.34,4.4-5.96-1.92-4.9-4.51-5.33c-1.45-.24-2.86-.05-4.19.56s-2.3,1.73-2.85,3.08c-.3.73.32,1.68,1.05,1.85.87.2,1.53-.27,1.85-1.05-.01.03-.16.33-.04.11.02-.04.04-.08.06-.12.05-.09.1-.18.15-.27.04-.06.23-.33.08-.13s.09-.09.14-.14c.07-.07.14-.14.22-.21.04-.03.32-.27.11-.1s.08-.05.13-.08c.1-.06.2-.12.3-.18s.21-.11.31-.16c.24-.12-.29.1-.03.02.23-.08.45-.15.68-.2.1-.02.2-.04.31-.06.34-.06-.26.02,0,0,.22-.01.44-.03.67-.02.1,0,.21,0,.31.02.04,0,.09.01.13.01.2,0-.33-.06-.14-.02.21.05.43.09.64.15.1.03.19.07.29.1.15.05-.16-.07-.16-.07.03.03.11.05.16.07.19.1.36.23.55.33.13.07-.13-.1-.13-.1.02.03.1.08.13.11.08.07.15.14.22.21.06.06.13.19.2.23-.03-.02-.2-.3-.07-.09.03.05.07.1.1.16.06.09.11.19.16.29.17.32-.06-.21.01.03.03.1.07.2.09.31.02.08.06.45.05.21,0-.27,0,.1.01.17,0,.11,0,.22,0,.32s-.01.22-.02.32c-.02.26,0-.1.02-.12-.03.03-.03.14-.03.18-.04.22-.1.43-.17.63-.02.06-.04.12-.07.18-.07.21-.02-.09.04-.1-.03,0-.15.31-.17.34-.11.2-.23.38-.35.56-.15.23.18-.21,0,0-.09.11-.18.21-.28.32-.08.08-.16.15-.24.23-.05.05-.28.3-.14.12.1-.13.07-.05,0,0-.05.03-.1.07-.15.1-.1.07-.21.13-.32.18-.06.03-.36.21-.15.08.18-.12-.08.02-.17.05-.1.03-.21.05-.31.08-.33.08.28,0-.06.01-.11,0-.22.01-.33,0-.08,0-.43-.04-.17,0s-.07-.02-.14-.03c-.11-.03-.22-.06-.33-.09-.05-.02-.11-.05-.16-.06,0,0,.3.14.16.07-.08-.05-.18-.09-.26-.14s-.17-.1-.25-.16c-.28-.18.21.2-.03-.02-.15-.13-.29-.27-.42-.42-.04-.04-.07-.09-.11-.13-.11-.11.1.14.1.13-.04-.1-.14-.2-.2-.28-.13-.21-.24-.43-.35-.65-.07-.14.07.16.07.16,0-.06-.06-.14-.08-.2-.04-.11-.07-.22-.11-.33s-.06-.22-.08-.34c-.01-.06-.08-.46-.04-.19s0-.16-.01-.23c0-.11,0-.23,0-.34,0-.11.04-.24.02-.34,0-.01-.06.35-.03.19.01-.07.02-.14.04-.21.05-.22.15-.43.19-.64-.06.3-.11.24-.05.13.03-.05.05-.1.08-.15.06-.11.14-.21.2-.32.07-.13-.11.13-.11.13.05-.04.09-.11.14-.16.09-.1.18-.19.28-.28.59-.53.58-1.59,0-2.12-.62-.57-1.5-.56-2.12,0h0Z"/>
            <path class="cls-7" d="m188.07,133.62c-2.41,2.11-2.85,5.77-1.64,8.62,1.36,3.21,4.74,4.73,8.09,3.98s6.01-3.77,5.95-7.31-2.38-6.81-5.77-7.69c-3.81-.99-7.98,1.09-9.37,4.77-.29.76.32,1.64,1.05,1.85.84.23,1.56-.29,1.85-1.05.31-.83,1.06-1.64,2.02-2.17.28-.16.49-.25.6-.29.29-.09.57-.19.87-.25.15-.03.3-.06.45-.08-.3.04.19-.01.2-.01.33-.02.65-.01.98.01.28.02-.34-.08.12.02.15.03.29.06.44.1.32.08.53.16.64.21.68.33.96.53,1.45,1.03.42.43.62.72.93,1.34.2.39.43,1.06.53,1.7-.04-.23,0,.02,0,.06,0,.15.02.31.02.46s0,.31,0,.46c0,.01-.06.51-.01.21-.05.3-.12.61-.22.9s-.13.37-.36.74c-.5.81-1.47,1.56-2.35,1.87-.24.08-.48.16-.72.21-.15.03-.29.06-.44.09.3-.05-.18.01-.2.01-.3.02-.6,0-.89,0-.45-.02.25.07-.19-.03-.19-.04-.39-.08-.58-.14-.14-.04-.29-.09-.42-.15.26.11-.18-.1-.19-.1-.12-.07-.24-.14-.36-.22-.03-.02-.37-.29-.14-.09-.56-.48-.66-.59-.98-1.16-.07-.12-.13-.24-.19-.36-.2-.37.07.25-.07-.15-.11-.31-.21-.61-.28-.93-.03-.14-.06-.27-.08-.41.05.33-.01-.23-.02-.29-.02-.33,0-.65.02-.97.03-.44-.07.28.02-.15.04-.18.07-.36.12-.54.04-.13.08-.26.12-.39.03-.09.06-.17.1-.26-.06.15-.06.14.02-.02.39-.69.44-.81,1.02-1.32.61-.53.55-1.58,0-2.12-.61-.61-1.51-.54-2.12,0h0Z"/>
            <path class="cls-7" d="m179.19,123.27c-1.31-.15-2.55.77-3.07,1.93-.58,1.28-.62,2.67-.04,3.96.99,2.19,3.62,3.55,5.98,3.28,1.29-.15,2.54-.66,3.41-1.65s1.33-2.18,1.46-3.49c.25-2.48-1.28-4.98-3.74-5.62-2.72-.71-5.76.74-6.69,3.43-.25.74.29,1.67,1.05,1.85.83.19,1.57-.25,1.85-1.05.01-.04.05-.11.05-.15,0,.02-.17.35-.06.14.04-.08.08-.16.13-.24s.1-.15.15-.23c.07-.11.15-.1-.09.12.04-.03.07-.08.1-.12.13-.15.28-.27.42-.41.11-.1-.16.12-.15.11.04-.02.09-.06.13-.09.09-.06.18-.11.27-.17s.19-.1.28-.15c.22-.12-.35.12-.03.01.19-.07.38-.13.57-.17.1-.02.22-.03.31-.06.02,0-.36.03-.2.03.05,0,.11-.01.16-.01.2-.02.4-.02.6,0,.05,0,.11,0,.16.01.13,0,.16.08-.16-.02.08.03.18.03.27.05s.18.05.27.07c.05.02.1.04.15.05.19.06-.1-.04-.14-.06.16.11.35.18.52.29.27.17-.2-.19-.02-.02.08.08.16.15.24.23.07.07.14.18.22.25,0,0-.18-.27-.11-.14.03.05.06.09.09.13.05.08.1.16.14.24.03.05.05.1.07.14.1.18-.04-.09-.05-.14.05.2.14.38.19.58.02.09.04.19.06.28.03.12-.03.21-.02-.15,0,.05.01.11.02.16.02.21.02.41,0,.62,0,.09-.03.19-.02.29,0-.02.07-.39.02-.15-.01.05-.02.11-.03.16-.04.2-.1.4-.17.6-.01.04-.03.08-.04.12-.08.23.04-.12.06-.13-.06.08-.1.2-.15.29-.05.1-.11.19-.17.28-.02.03-.05.07-.07.1-.09.16.21-.24.09-.11-.14.15-.27.31-.42.44-.03.03-.1.07-.13.11.02-.02.31-.21.1-.09-.08.05-.16.11-.25.16s-.17.09-.26.14c-.13.07-.14-.01.13-.05-.05,0-.11.04-.16.06-.2.07-.41.1-.61.15-.15.04.2-.02.19-.02-.05,0-.11.01-.17.02-.11,0-.22.01-.33.01s-.22,0-.34-.01c-.06,0-.42-.04-.14,0s-.06-.02-.13-.03c-.11-.02-.22-.05-.33-.08s-.22-.07-.32-.11c-.04-.01-.08-.03-.12-.05-.18-.05.29.15.12.05-.18-.11-.38-.19-.56-.3-.08-.05-.19-.16-.28-.19,0,0,.25.21.14.11-.04-.04-.09-.07-.13-.11-.16-.14-.3-.29-.44-.45-.16-.17.07.08.08.11-.03-.06-.08-.12-.12-.17-.06-.09-.12-.19-.17-.29-.03-.05-.05-.1-.08-.15-.08-.15,0-.21.03.09-.01-.1-.07-.2-.09-.3-.01-.05-.02-.1-.03-.15-.05-.2.02.12.02.16.01-.11-.02-.25-.02-.36,0-.11.02-.22.02-.32,0-.19-.07.34-.02.16.02-.06.03-.13.04-.2.02-.1.05-.2.09-.3.02-.05.04-.1.06-.15-.01.04-.16.32-.06.15.05-.09.13-.19.17-.29.06-.12-.13.16-.13.16.04-.03.08-.09.12-.13.03-.03.07-.06.1-.1.08-.1-.32.2-.11.09.03-.02.06-.03.09-.05.2-.14-.06.04-.14.05.03,0,.11-.03.13-.04.18-.07-.15.02-.19.02.12.01.25,0,.37,0,.78.09,1.53-.75,1.5-1.5-.04-.89-.66-1.41-1.5-1.5h0Z"/>
          </g>
          <g>
            <path class="cls-7" d="m286.38,239.24c-3.89-2.55-9.25-.87-12.01,2.57s-2.94,8.77-.69,12.71,6.77,5.98,11.3,5.06,8.06-4.45,8.41-9.01c.38-4.9-3.27-10.08-8.22-10.86-.8-.12-1.61.2-1.85,1.05-.2.71.24,1.72,1.05,1.85,3.2.5,5.6,3.29,5.99,6.46s-1.73,6.13-4.75,7.22-6.56.44-8.66-2.23c-1.96-2.48-2.57-6.28-1.07-9.14,1.6-3.07,5.84-5.15,8.98-3.09,1.62,1.06,3.12-1.53,1.51-2.59h0Z"/>
            <path class="cls-7" d="m312.15,253.28c-4.08-3.06-10.3-3.94-14.65-.88-3.86,2.71-5.76,8.11-3.67,12.49,2.25,4.71,8.37,6.59,13.23,6.34,5.25-.28,10.3-3.48,11.07-8.99.39-2.75-.57-5.48-2.67-7.33s-4.86-2.77-7.6-3.25c-1.89-.33-2.7,2.56-.8,2.89,3.26.57,7.72,1.95,8.14,5.85.45,4.13-3.21,7.07-6.92,7.69s-8.74-.39-11.15-3.52c-2.16-2.81-1.12-6.87,1.33-9.13,3.4-3.15,8.78-2.12,12.17.42.65.49,1.67.1,2.05-.54.46-.76.11-1.57-.54-2.05h0Z"/>
            <path class="cls-7" d="m299.55,232.76c-3.3.67-5.87,3.35-5.91,6.78-.04,2.76,1.51,5.72,4.09,6.88,3.18,1.43,6.7,0,8.68-2.7s1.66-6.19-.62-8.5-6.18-3.12-9.02-1.33c-.69.43-.96,1.34-.54,2.05s1.36.97,2.05.54c.11-.07.23-.14.35-.2.04-.02.43-.2.12-.07.24-.1.5-.17.75-.23.05-.01.48-.07.12-.03.09-.01.17-.02.26-.02.31-.02.62,0,.92.01.42.03-.29-.08.13.02.13.03.26.05.39.09.22.05.43.13.64.2.41.13-.25-.13.14.05.12.06.24.12.36.18.26.14.5.29.74.46.21.15-.25-.23.06.05.1.09.2.17.3.27s.19.19.28.29c.03.03.3.37.1.1.14.19.27.4.39.61.05.1.1.19.15.29-.14-.3.07.19.08.26.04.13.07.26.1.39,0,.03.05.45.03.17.02.25.01.49,0,.74,0,.44.08-.24-.02.19-.03.14-.06.29-.1.43s-.09.28-.14.42c-.06.17-.07.18-.02.05-.04.09-.09.18-.13.27-.3.56-.43.74-.83,1.14-.46.47-.63.6-1.25.94-.13.07-.26.14-.4.2.26-.11-.19.06-.2.06-.24.08-.47.13-.71.19-.43.1.26.01-.19.02-.15,0-.29.02-.44.01s-.3,0-.44-.03c.28.04-.28-.07-.34-.09-.11-.03-.21-.07-.31-.1-.08-.02-.33-.15-.06-.02-.23-.12-.45-.25-.67-.38-.35-.21.2.19-.11-.07-.1-.09-.19-.17-.29-.26-.06-.06-.12-.12-.18-.18-.04-.04-.38-.46-.18-.19-.16-.21-.3-.43-.43-.65-.06-.11-.13-.23-.18-.35,0,0-.17-.38-.08-.18s-.07-.2-.07-.19c-.04-.12-.08-.25-.12-.38s-.07-.25-.1-.38c-.01-.07-.09-.61-.05-.25-.03-.26-.04-.52-.04-.78,0-.13.01-.26.02-.39.02-.18.02-.17-.01.01.01-.08.03-.17.04-.25.06-.3.14-.58.25-.86-.02.06-.13.26,0,0,.08-.15.16-.31.25-.45.07-.11.14-.22.22-.32-.2.26.23-.24.28-.29.25-.25.37-.35.63-.53.68-.45,1.22-.65,2.04-.81s1.25-1.1,1.05-1.85c-.23-.83-1.05-1.21-1.85-1.05h0Z"/>
          </g>
          <g>
            <path class="cls-7" d="m421.31,45.01c4.63-.5,7.65-4.71,7.88-9.18.25-4.77-3.18-8.96-7.46-10.67s-9.27-.32-12.14,3.4-3.28,8.82-.34,12.53,8.82,5.21,13.08,2.7c1.66-.98.15-3.57-1.51-2.59-2.62,1.55-6.12.92-8.36-1.06-2.46-2.2-2.84-5.62-1.31-8.49s4.67-4.78,8.01-4.12,6.26,3.25,6.93,6.6c.62,3.13-1.26,7.51-4.78,7.89-.81.09-1.5.63-1.5,1.5,0,.74.69,1.59,1.5,1.5h0Z"/>
            <path class="cls-7" d="m392.48,50.53c4.96-.22,9.86-2.98,11.79-7.7,1.73-4.23.26-9.51-3.46-12.17-4.64-3.32-11.07-.92-15.04,2.32s-6.02,8.38-3.97,13.2c1.09,2.56,3.29,4.54,6.07,5.02,3.28.57,6.52-.65,9.34-2.24,1.68-.95.17-3.54-1.51-2.59-3.3,1.86-8.34,3.46-10.74-.57-1.99-3.34-.67-7.23,1.93-9.8s7.53-5.09,11.32-3.41c2.98,1.32,4.35,5.13,3.6,8.17-1.01,4.11-5.31,6.58-9.31,6.76-1.92.08-1.93,3.08,0,3h0Z"/>
            <path class="cls-7" d="m415.31,58.56c1.24-1.52,2.09-3.44,1.93-5.44-.13-1.62-.84-3.09-1.96-4.27-2.17-2.26-5.78-3.18-8.6-1.59-2.57,1.45-3.8,4.61-3.41,7.45.2,1.46.81,2.86,1.87,3.91s2.54,1.65,4.07,1.81c3.28.35,6.68-1.66,7.73-4.82.25-.75-.28-1.67-1.05-1.85-.83-.19-1.58.25-1.85,1.05-.02.07-.16.41-.08.23.09-.2-.08.16-.11.21-.06.11-.12.22-.19.33-.04.06-.09.12-.12.18-.09.17.17-.19.04-.05-.17.19-.33.38-.52.55-.09.09-.19.16-.29.25.28-.25-.05.03-.14.09-.21.14-.43.27-.66.38-.09.04-.51.19-.14.07-.14.05-.28.1-.42.15-.25.08-.5.14-.75.19-.17.03-.3.04-.04.02-.16.02-.33.03-.49.04-.26.01-.51,0-.76-.01-.36-.02.18.04-.09,0-.14-.03-.28-.05-.42-.09-.25-.06-.48-.14-.72-.23.27.11.06.02-.08-.05-.13-.07-.25-.14-.37-.22-.11-.07-.32-.25-.1-.06-.1-.08-.2-.17-.29-.26s-.18-.18-.26-.27c-.05-.05-.09-.11-.14-.17.07.08.14.2.04.05-.14-.21-.27-.42-.38-.64-.03-.06-.06-.13-.09-.19,0,0,.09.27.05.11-.04-.14-.1-.27-.14-.41-.07-.24-.11-.49-.17-.73-.05-.2,0,.29.01.08,0-.05-.01-.11-.02-.16-.01-.14-.02-.29-.02-.43,0-.26.01-.51.04-.76.02-.27,0,.03-.01.07.01-.07.02-.14.04-.22.03-.14.06-.29.1-.43.06-.25.16-.48.24-.72-.07.24-.05.11.02-.04s.15-.29.23-.43c.06-.11.13-.22.2-.32.03-.04.07-.09.09-.13.09-.18-.17.2-.04.05.18-.2.35-.4.55-.58.05-.04.35-.27.18-.16s.14-.09.2-.13c.11-.07.22-.13.33-.19.05-.03.1-.05.15-.07.28-.15-.17.03.02,0,.23-.04.57-.13.79-.22.15-.06-.08,0-.11,0,.08,0,.15-.02.23-.02.15-.01.31-.02.46-.01.14,0,.27.01.41.02.39.03-.15-.04.12.02.29.07.57.13.85.23.12.04.4.17.14.04.13.06.25.12.37.18.26.14.51.3.76.46.23.15.02.01-.02-.02.08.06.15.12.23.19.12.1.23.21.35.32s.21.23.32.35c.04.04.07.09.11.14-.21-.25-.03-.04.01.02.17.26.3.54.47.8.11.18-.07-.24-.01-.04.03.09.07.18.1.27.05.15.09.3.12.45.03.13.06.51.04.18,0,.16.02.31.02.47,0,.21-.01.41-.04.62,0-.07.05-.24-.02.06-.02.1-.04.2-.07.3-.05.2-.11.4-.18.59-.09.28-.05.14-.02.07-.05.12-.11.23-.17.35-.09.18-.2.36-.31.54-.04.07-.09.13-.13.19-.26.4.16-.18-.14.19-.49.61-.64,1.53,0,2.12.55.5,1.59.65,2.12,0h0Z"/>
          </g>
          <g>
            <path class="cls-6" d="m479.86,389.86c4.63-.5,7.65-4.71,7.88-9.18.25-4.77-3.18-8.96-7.46-10.67s-9.27-.32-12.14,3.4c-2.81,3.64-3.28,8.82-.34,12.53s8.82,5.21,13.08,2.7c1.66-.98.15-3.57-1.51-2.59-2.62,1.55-6.12.92-8.36-1.06-2.46-2.2-2.84-5.62-1.31-8.49s4.67-4.78,8.01-4.12,6.26,3.25,6.93,6.6c.62,3.13-1.26,7.51-4.78,7.89-.81.09-1.5.63-1.5,1.5,0,.74.69,1.59,1.5,1.5h0Z"/>
            <path class="cls-6" d="m451.03,395.38c4.96-.22,9.86-2.98,11.79-7.7,1.73-4.23.26-9.51-3.46-12.17-4.64-3.32-11.07-.92-15.04,2.32-3.89,3.18-6.02,8.38-3.97,13.2,1.09,2.56,3.29,4.54,6.07,5.02,3.28.57,6.52-.65,9.34-2.24,1.68-.95.17-3.54-1.51-2.59-3.3,1.86-8.34,3.46-10.74-.57-1.99-3.34-.67-7.23,1.93-9.8s7.53-5.09,11.32-3.41c2.98,1.32,4.35,5.13,3.6,8.17-1.01,4.11-5.31,6.58-9.31,6.76-1.92.08-1.93,3.08,0,3h0Z"/>
            <path class="cls-6" d="m473.86,403.41c1.24-1.52,2.09-3.44,1.93-5.44-.13-1.62-.84-3.09-1.96-4.27-2.17-2.26-5.78-3.18-8.6-1.59-2.57,1.45-3.8,4.61-3.41,7.45.2,1.46.81,2.86,1.87,3.91s2.54,1.65,4.07,1.81c3.28.35,6.68-1.66,7.73-4.82.25-.75-.28-1.67-1.05-1.85-.83-.19-1.58.25-1.85,1.05-.02.07-.16.41-.08.23.09-.2-.08.16-.11.21-.06.11-.12.22-.19.33-.04.06-.09.12-.12.18-.09.17.17-.19.04-.05-.17.19-.33.38-.52.55-.09.09-.19.16-.29.25.28-.25-.05.03-.14.09-.21.14-.43.27-.66.38-.09.04-.51.19-.14.07-.14.05-.28.1-.42.15-.25.08-.5.14-.75.19-.17.03-.3.04-.04.02-.16.02-.33.03-.49.04-.26.01-.51,0-.76-.01-.36-.02.18.04-.09,0-.14-.03-.28-.05-.42-.09-.25-.06-.48-.14-.72-.23.27.11.06.02-.08-.05-.13-.07-.25-.14-.37-.22-.11-.07-.32-.25-.1-.06-.1-.08-.2-.17-.29-.26s-.18-.18-.26-.27c-.05-.05-.09-.11-.14-.17.07.08.14.2.04.05-.14-.21-.27-.42-.38-.64-.03-.06-.06-.13-.09-.19,0,0,.09.27.05.11-.04-.14-.1-.27-.14-.41-.07-.24-.11-.49-.17-.73-.05-.2,0,.29.01.08,0-.05-.01-.11-.02-.16-.01-.14-.02-.29-.02-.43,0-.26.01-.51.04-.76.02-.27,0,.03-.01.07.01-.07.02-.14.04-.22.03-.14.06-.29.1-.43.06-.25.16-.48.24-.72-.07.24-.05.11.02-.04s.15-.29.23-.43c.06-.11.13-.22.2-.32.03-.04.07-.09.09-.13.09-.18-.17.2-.04.05.18-.2.35-.4.55-.58.05-.04.35-.27.18-.16s.14-.09.2-.13c.11-.07.22-.13.33-.19.05-.03.1-.05.15-.07.28-.15-.17.03.02,0,.23-.04.57-.13.79-.22.15-.06-.08,0-.11,0,.08,0,.15-.02.23-.02.15-.01.31-.02.46-.01.14,0,.27.01.41.02.39.03-.15-.04.12.02.29.07.57.13.85.23.12.04.4.17.14.04.13.06.25.12.37.18.26.14.51.3.76.46.23.15.02.01-.02-.02.08.06.15.12.23.19.12.1.23.21.35.32s.21.23.32.35c.04.04.07.09.11.14-.21-.25-.03-.04.01.02.17.26.3.54.47.8.11.18-.07-.24-.01-.04.03.09.07.18.1.27.05.15.09.3.12.45.03.13.06.51.04.18,0,.16.02.31.02.47,0,.21-.01.41-.04.62,0-.07.05-.24-.02.06-.02.1-.04.2-.07.3-.05.2-.11.4-.18.59-.09.28-.05.14-.02.07-.05.12-.11.23-.17.35-.09.18-.2.36-.31.54-.04.07-.09.13-.13.19-.26.4.16-.18-.14.19-.49.61-.64,1.54,0,2.12.55.5,1.59.65,2.12,0h0Z"/>
          </g>
          <path class="cls-7" d="m127.67,349.46c-2.21-4.37-8.29-5.17-12.17-2.65-2.25,1.46-3.8,3.68-4.8,6.14s-1.67,5.78-.62,8.43c1.95,4.92,7.86,6.7,12.69,5.95,4.58-.71,9.11-4.05,9.76-8.87s-2.84-10.46-8.13-10.67c-1.93-.08-1.93,2.92,0,3,3.13.13,5.18,3.41,5.23,6.3.06,3.48-2.86,6.04-5.98,6.98-3.36,1-7.74.45-10.04-2.46-1.35-1.71-1.17-3.92-.66-5.91s1.35-3.74,2.72-5.16,3.22-2.3,5.26-2.14c1.76.13,3.34,1,4.15,2.59.87,1.72,3.46.21,2.59-1.51h0Z"/>
          <path class="cls-7" d="m122.43,335.63c-3.2,1.48-3.95,5.62-2.76,8.64.66,1.68,1.72,3.14,2.92,4.48s2.55,2.47,4.25,2.97c3.2.95,6.69-1.08,8.03-4.02,1.47-3.23.36-6.94-1.99-9.44-2.8-2.99-7.14-3.88-11.07-3.62-.81.05-1.5.65-1.5,1.5,0,.77.69,1.55,1.5,1.5,2.7-.18,5.51.16,7.8,1.73,1.85,1.27,3.24,3.64,2.91,5.93-.28,1.92-2.09,3.66-4,3.66-1.12,0-2.13-.67-2.94-1.43-.96-.9-1.83-1.94-2.5-3.08-1.17-1.98-1.61-5.08.86-6.23.73-.34.92-1.4.54-2.05-.44-.75-1.31-.88-2.05-.54h0Z"/>
        </g>
      </g>
    </g>
  </g>
</svg>