<?xml version="1.0" encoding="utf-8"?>
<!-- Generator: Adobe Illustrator 27.5.0, SVG Export Plug-In . SVG Version: 6.00 Build 0)  -->
<svg version="1.1" xmlns="http://www.w3.org/2000/svg" xmlns:xlink="http://www.w3.org/1999/xlink" x="0px" y="0px"
	 viewBox="0 0 750 500" style="enable-background:new 0 0 750 500;" xml:space="preserve">
<g id="BACKGROUND">
	<g>
		<rect style="fill:#DBF0FF;" width="750" height="500"/>
		<g>
			<path style="fill:none;stroke:#F7FCFF;stroke-width:0.5;stroke-miterlimit:10;" d="M428.278,479.656
				c-20.406,0-38.242-9.675-49.611-17.793c-10.478-7.481-19.618-16.293-28.457-24.814c-4.228-4.075-8.599-8.289-12.971-12.204
				c-17.784-15.923-45.578-35.087-76.998-35.952c-0.784-0.021-1.567-0.032-2.349-0.032c-11.678,0-23.35,2.285-35.708,4.704
				c-6.225,1.219-12.664,2.48-19.144,3.432c-7.114,1.046-13.92,1.577-20.23,1.577c-18.033,0-33.069-4.303-44.691-12.791
				c-20.459-14.941-26.539-38.493-32.419-61.27c-2.644-10.24-5.141-19.911-8.855-28.698c-3.585-8.482-8.555-16.605-13.817-25.204
				c-9.862-16.119-20.06-32.786-21.327-52.942c-0.632-10.051,1.107-19.528,2.788-28.693c0.722-3.937,1.404-7.656,1.895-11.368
				c1.406-10.633,1.267-21.437,1.119-32.875c-0.156-12.124-0.318-24.66,1.49-37.242c3.456-24.037,18.007-54.584,47.646-61.567
				c28.875-6.804,54.891-10.112,79.536-10.112c11.281,0,22.299,0.727,32.748,2.162c11.803,1.621,23.586,4.04,34.982,6.381
				c19.852,4.077,38.604,7.929,57.469,7.929c4.662,0,9.219-0.247,13.544-0.732c14.517-1.63,28.59-6.103,43.49-10.838
				c17.805-5.659,36.214-11.51,55.827-12.281c1.499-0.059,3.033-0.089,4.56-0.089c22.403,0,44.007,6.329,64.9,12.45
				c20.065,5.878,39.018,11.43,57.816,11.43c5.668,0,10.943-0.499,16.126-1.526c4.154-0.823,8.323-2.016,12.738-3.28
				c7.391-2.116,15.033-4.304,23.346-4.928c1.536-0.116,3.102-0.174,4.654-0.174c19.743,0,39.582,9.363,53.07,25.047
				c13.202,15.353,20.246,35.907,19.834,57.878c-0.12,6.373-0.852,12.579-1.56,18.58c-0.996,8.445-1.938,16.421-1.117,24.039
				c0.922,8.551,4.065,17.337,7.393,26.64c2.91,8.135,5.92,16.546,7.476,25.155c1.904,10.536,1.311,19.846-1.815,28.462
				c-7.824,21.57-28.666,31.448-47.055,40.162c-8.434,3.997-16.4,7.773-23.163,12.438c-12.191,8.41-21.48,21.325-25.482,35.431
				c-1.528,5.386-2.452,11.204-3.43,17.365c-2.253,14.183-4.807,30.258-16.122,42.501c-11.198,12.117-26.305,15.943-40.914,19.644
				c-7.017,1.776-13.644,3.456-19.555,5.982c-12.305,5.258-22.838,14.829-33.989,24.962c-15.727,14.291-31.99,29.069-54.666,32.403
				C434.339,479.436,431.31,479.656,428.278,479.656z"/>
			<path style="fill:#F7FCFF;" d="M119.004,55.951c-23.059,5.433-36.485,29.865-39.812,53.006
				c-3.326,23.141,0.471,46.826-2.594,70.002c-1.68,12.7-5.418,25.282-4.614,38.064c1.731,27.544,23.583,49.307,34.351,74.78
				c12.379,29.283,12.002,66.775,37.86,85.66c15.986,11.674,37.669,12.236,57.346,9.342c19.677-2.894,39.097-8.758,58.984-8.21
				c31.416,0.866,60.322,17.744,83.585,38.575c13.527,12.112,25.744,25.743,40.543,36.31c14.8,10.567,33.056,17.991,51.13,15.333
				c34.555-5.081,54.051-42.948,86.106-56.646c19.08-8.154,42.947-7.99,56.952-23.145c13.436-14.538,11.833-36.746,17.207-55.686
				c4.679-16.493,15.309-31.28,29.542-41.099c22.971-15.847,56.944-21.608,66.384-47.633c8.896-24.525-10.822-49.74-13.613-75.64
				c-1.574-14.607,2.344-29.23,2.62-43.917c0.344-18.312-5.331-36.997-17.345-50.967c-12.014-13.97-30.617-22.709-49.142-21.317
				c-11.915,0.895-23.138,5.721-34.853,8.041c-48.354,9.58-95.718-24.014-145-22.077c-33.833,1.33-64.929,19.286-98.572,23.063
				c-36.382,4.084-72.279-8.63-108.546-13.609C189.919,43.017,151.689,48.249,119.004,55.951z"/>
		</g>
		<g>
			<g>
				<path style="fill:#B5E0FF;" d="M704.083,178.53c0.366,2.466,1.491,4.813,3.184,6.643c0.718,0.776,1.679,1.506,2.725,1.359
					c1.666-0.235,2.221-2.372,2.135-4.052c-0.078-1.504-0.374-3.038-1.186-4.306c-0.813-1.268-2.217-2.227-3.723-2.199
					C705.712,176.003,703.889,177.222,704.083,178.53z"/>
				<path style="fill:#B5E0FF;" d="M709.044,165.723c-0.405-1.526-0.81-3.052-1.216-4.578c-1.608-0.587-3.598,0.242-4.313,1.798
					c-0.714,1.555-0.047,3.606,1.446,4.443C706.455,168.223,708.553,167.722,709.044,165.723z"/>
				<path style="fill:#B5E0FF;" d="M719.528,173.625c-1.408-1.605-1.814-4.459-3.924-4.787c-1.722-0.268-3.119,1.716-2.922,3.448
					s1.436,3.145,2.673,4.374c0.491,0.488,1.033,0.989,1.714,1.113c1.326,0.24,2.493-1.147,2.551-2.494
					C719.678,173.932,718.979,172.682,719.528,173.625z"/>
				<path style="fill:#B5E0FF;" d="M721.397,188.677c-0.287-1.255-0.611-2.581-1.519-3.493c-0.909-0.912-2.608-1.16-3.419-0.16
					c-0.382,0.471-0.489,1.108-0.503,1.715c-0.062,2.791,1.746,5.531,4.337,6.57c0.258,0.103,0.551,0.191,0.807,0.082
					c0.251-0.107,0.393-0.372,0.492-0.626C722.267,191.047,721.842,188.95,721.397,188.677z"/>
				<path style="fill:#B5E0FF;" d="M717.387,204.356c0.144-2.46-1.121-4.954-3.19-6.292c-0.518-0.335-1.187-0.602-1.732-0.315
					c-0.444,0.234-0.645,0.755-0.769,1.241c-0.493,1.94-0.274,4.141,0.955,5.721C713.88,206.291,717.216,207.27,717.387,204.356z"/>
				<path style="fill:#B5E0FF;" d="M726.425,205.208c0.208-1.276,0.417-2.552,0.625-3.828c-0.941-0.951-2.07-1.975-3.403-1.859
					c-1.215,0.106-2.185,1.234-2.342,2.443c-0.157,1.209,0.378,2.432,1.193,3.339C723.305,206.199,724.911,206.756,726.425,205.208z
					"/>
				<path style="fill:#B5E0FF;" d="M716.737,163.313c0.68-1.129,0.844-2.662,0.073-3.73c-0.771-1.068-2.607-1.289-3.385-0.226
					c-0.286,0.39-0.398,0.879-0.461,1.358c-0.159,1.227,0,2.558,0.758,3.536C714.48,165.23,715.431,165.48,716.737,163.313z"/>
			</g>
			<g>
				<path style="fill:#B5E0FF;" d="M89.002,44.078c1.249-0.118,2.494-0.844,2.96-2.009c0.467-1.165-0.079-2.715-1.27-3.11
					c-0.603-0.2-1.27-0.099-1.866,0.122c-1.303,0.484-2.443,1.733-2.302,3.116C86.664,43.58,88.567,44.573,89.002,44.078z"/>
				<path style="fill:#B5E0FF;" d="M101.371,36.876c1.202-0.054,2.403-0.109,3.605-0.163c0.592-0.871,0.497-2.161-0.255-2.899
					c-0.752-0.737-2.09-0.788-2.861-0.07C101.09,34.462,101.068,35.848,101.371,36.876z"/>
				<path style="fill:#B5E0FF;" d="M94.153,29.479c1.709,0.698,3.93,0.113,4.848-1.488c0.918-1.601,0.098-4.01-1.683-4.493
					c-0.952-0.258-1.965,0.013-2.885,0.368c-1.163,0.448-2.417,1.231-2.542,2.471C91.79,27.352,92.241,28.699,94.153,29.479z"/>
				<path style="fill:#B5E0FF;" d="M116.876,31.773c0.898,0.227,1.828,0.455,2.74,0.293c0.912-0.161,1.803-0.825,1.921-1.743
					c0.054-0.416-0.057-0.844-0.263-1.21c-0.643-1.139-2.288-1.564-3.402-0.88C116.757,28.918,116.392,30.578,116.876,31.773z"/>
				<path style="fill:#B5E0FF;" d="M109.442,23.279c1.368,1.352,3.902,1.189,5.116-0.303c1.215-1.492,0.886-3.971-0.652-5.126
					c-1.538-1.156-3.976-0.806-5.159,0.711C107.814,19.758,107.692,21.55,109.442,23.279z"/>
			</g>
		</g>
	</g>
</g>
<g id="OBJECTS">
	<g>
		<defs>
			<rect id="SVGID_1_" width="750" height="500"/>
		</defs>
		<clipPath id="SVGID_00000033366967916583667570000016253348652920950678_">
			<use xlink:href="#SVGID_1_"  style="overflow:visible;"/>
		</clipPath>
		<g style="clip-path:url(#SVGID_00000033366967916583667570000016253348652920950678_);">
			<path style="fill:#B5E0FF;" d="M168.715,475.221c0,0,63.259-66.092,110.467-46.264c47.208,19.827,59.483,53.818,85.919,55.706
				c26.437,1.888,68.924-13.218,76.478,18.883c7.553,32.102-298.357,14.162-298.357,14.162L168.715,475.221z"/>
			<g>
				<path style="fill:none;stroke:#1A3D66;stroke-width:0.5;stroke-miterlimit:10;" d="M221.945,526.05
					c-1.176-25.61-2.352-51.219-3.528-76.829c-0.429-9.349-1.03-19.244-6.176-26.949c-8.95-13.4-27.172-14.696-42.843-16.511
					c-16.679-1.932-33.822-6.268-46.627-17.466c-12.724-11.127-19.658-27.674-24.949-43.997c-2.799-8.635-5.308-17.491-9.918-25.254
					c-4.61-7.763-11.737-14.46-20.418-16.082c-11.558-2.16-22.729,4.888-32.047,12.268c-15.888,12.583-30.343,27.09-46.218,46.969
					c0.657,2.066,1.315,4.132,1.972,6.198c12.996-26.308,34.456-48.067,60.171-61.012c4.063-2.046,8.32-3.902,12.824-4.299
					c13.685-1.206,25.135,11.29,30.289,24.429c5.154,13.14,6.344,27.72,12.076,40.602c10.983,24.681,37.327,39.109,63.468,42.216
					c11.135,1.324,22.943,1.07,32.718,6.732c12.235,7.087,18.305,21.785,21.357,35.919c2.913,13.489,3.857,27.336,4.792,41.122
					C229.513,503.302,230.137,512.497,221.945,526.05z"/>
				<g>
					<path style="fill:#78B7FF;" d="M-5.565,383.557c8.759-16.045,19.897-30.788,32.936-43.6
						c7.87-7.733,17.018-15.041,27.921-16.729c11.87-1.838,24.575,3.957,30.97,14.125c9.254,14.715,5.082,35.01,14.375,49.699
						c8.14,12.866,24.12,17.824,38.611,22.491c21.688,6.985,44.855,17.134,54.649,37.707c11.319,23.775,0.542,51.79,1.992,78.081
						c-42.13-11.792-86.877-2.855-130.624-2.454c-27.034,0.247-54.829-2.711-80.512,5.734
						C-10.551,477.699-26.232,421.414-5.565,383.557z"/>
					<g>
						<path style="fill:none;stroke:#FFFFFF;stroke-width:0.5;stroke-miterlimit:10;" d="M181.887,542.152
							c-15.621-11.285-26.213-29.285-28.492-48.421c-2.068-17.36,0.955-38.489-13.017-48.998c-9.626-7.24-22.982-5.547-34.952-4.209
							c-11.97,1.338-25.96,1.194-33.649-8.077c-5.947-7.171-6.296-17.98-12.839-24.612c-7.708-7.813-21.029-6.529-30.584-1.131
							c-9.556,5.398-16.868,13.987-25.723,20.471c-8.855,6.484-20.8,10.816-32.966,5.613c0.266,5.192,0.532,10.384,0.798,15.576
							c0.081,1.577,0.207,3.277,1.222,4.488c1.044,1.247,2.767,1.657,4.377,1.892c8.784,1.282,17.995-0.583,25.588-5.183
							c12.599-7.632,20.586-22.255,34.473-27.168c1.753-0.62,3.663-1.069,5.46-0.593c1.616,0.428,2.954,1.557,4.083,2.791
							c5.595,6.119,7.032,14.92,11.244,22.061c5.748,9.747,17.035,15.957,28.345,15.596c9.404-0.3,18.262-4.743,27.649-5.378
							c2.993-0.203,6.151,0.028,8.714,1.588c5.278,3.212,6.015,10.392,6.768,16.526
							C131.908,503.692,148.864,530.463,181.887,542.152z"/>
						<path style="fill:none;stroke:#FFFFFF;stroke-width:0.5;stroke-miterlimit:10;" d="M182.654,541.745
							c-3.833,3.686-7.666,7.371-11.499,11.057c-17.527-13.266-31.702-30.925-40.863-50.907
							c-3.495-7.622-6.274-15.575-10.174-22.998c-1.106-2.105-2.414-4.276-4.535-5.351c-2.136-1.083-4.674-0.844-7.055-0.588
							c-9.483,1.02-19.103,1.893-28.522,0.397c-9.42-1.496-18.752-5.618-24.749-13.034c-3.07-3.797-5.17-8.314-8.329-12.037
							c-3.159-3.723-7.931-6.694-12.722-5.749c-5.289,1.043-8.498,6.215-11.907,10.39c-13.108,16.053-38.126,20.85-57.276,12.167
							c-0.112,4.673-0.225,9.347-0.337,14.02c20.713,3.103,43.685,1.556,59.809-11.811c4.393-3.642,9.014-8.379,14.685-7.743
							c6.26,0.702,9.641,7.384,13.258,12.541c8.419,12.004,23.782,18.737,38.315,16.793c6.95-0.93,14.411-3.589,20.632-0.354
							c5.29,2.751,7.735,8.831,10.09,14.308c6.983,16.237,16.77,31.264,28.798,44.215c3.363,3.621,7.12,7.213,11.882,8.535
							S172.883,555.145,182.654,541.745z"/>
					</g>
				</g>
			</g>
			<g>
				<path style="fill:#FFB5EA;" d="M217.893,520.236c-0.155,0.428-0.313,0.855-0.457,1.287c-0.809,2.417-0.197,4.519,1.102,6.026
					c0.047,0.5,0.091,1.003,0.138,1.502c0.482-0.04,0.961-0.112,1.442-0.159c0.105,0.066,0.211,0.131,0.32,0.192
					c-0.435,1.208-0.161,1.342,0.42,0.221c2.55,1.214,5.757,0.945,7.537-1.597c48.367-9.403,89.661-58.18,96.636-113.08
					c-32.465,17.792-67.359,55.323-91.022,92.085c-1.358-1.359-3.25-2.179-5.111-2.052c11.457-35.076,21.171-76.499,9.238-106.064
					C214.732,433.409,214.394,478.065,217.893,520.236z"/>
				<g>
					<path style="fill:#FFFFFF;" d="M221.459,528.657c-0.347,0.171-0.699,0.339-1.049,0.507c-0.215,0.596,0.215,0.593,0.449,0.141
						c0.266,0.127,0.542,0.227,0.82,0.32c0.666-0.454,1.336-0.902,1.998-1.365c25.949-13.007,47.723-28.59,64.834-46.416
						c14.101-14.689,25.104-30.942,32.631-48.034c0.396-1.427,0.779-2.859,1.13-4.3c-7.496,18.505-19.059,36.106-34.215,51.897
						c-16.207,16.884-36.612,31.751-60.803,44.319c33.152-23.822,62.31-54.07,84.778-88.03c4.444-6.716,9.199-14.462,12.679-22.886
						c-0.3,0.165-0.6,0.341-0.9,0.509c-3.431,8.086-8.014,15.539-12.307,22.028c-23.111,34.936-53.321,65.937-87.673,90.036
						c1.195-1.108,2.33-2.223,3.409-3.281c28.554-28.03,64.107-64.791,93.669-107.104c-0.409,0.243-0.817,0.487-1.227,0.736
						c-17.105,24.464-43.854,57.788-92.884,105.918C225.151,525.265,223.371,527.011,221.459,528.657z"/>
					<path style="fill:#FFFFFF;" d="M218.538,527.549c0.047,0.5,0.091,1.003,0.138,1.502c0.138-0.011,0.275-0.03,0.412-0.045
						c-0.481-2.871-0.883-5.776-1.215-8.715c-0.149,0.409-0.299,0.818-0.438,1.232c-0.015,0.045-0.021,0.089-0.036,0.134
						c0.219,1.81,0.476,3.603,0.751,5.387C218.273,527.217,218.399,527.388,218.538,527.549z"/>
					<path style="fill:#FFFFFF;" d="M238.539,399.668c-0.136-0.356-0.261-0.718-0.403-1.071c-0.078,0.116-0.149,0.235-0.227,0.351
						c0.112,43.159-5.872,85.977-17.836,127.461c1.799-16.411,3.7-33.255,6.16-49.806c1.298-8.728,2.782-17.584,4.219-26.149
						c2.814-16.785,5.703-34.067,7.351-51.341c-0.256,0.386-0.502,0.777-0.753,1.165c-1.664,16.845-4.476,33.695-7.222,50.072
						c-1.436,8.567-2.921,17.427-4.219,26.161c-2.596,17.458-4.567,35.235-6.455,52.489c0.28-0.032,0.56-0.063,0.84-0.093
						C232.357,486.87,238.585,443.448,238.539,399.668z"/>
					<path style="fill:#FFFFFF;" d="M216.335,491.421c0.083,4.507,0.255,9.016,0.498,13.514c-0.379-15.12,1.047-31.208,4.309-48.62
						c3.276-17.489,8.012-34.451,13.544-52.206c-0.494,0.839-0.974,1.683-1.444,2.532c-5.175,16.791-9.607,32.934-12.721,49.558
						C218.205,468.563,216.817,480.259,216.335,491.421z"/>
				</g>
			</g>
			<path style="fill:#B5E0FF;" d="M-9.301,58.308c0,0,9.006-27.018,27.469-27.018s30.621,9.907,50.434-0.901
				c19.813-10.807,41.878-31.521,66.195-26.118s24.317-17.112,24.317-17.112L-27.763-33.104L-9.301,58.308z"/>
		</g>
		<g style="clip-path:url(#SVGID_00000033366967916583667570000016253348652920950678_);">
			<path style="fill:#B5E0FF;" d="M463.921-7.376c1.186,21.536,97.365,46.181,114.884,57.54
				c11.399,7.391,25.073,11.13,34.845,20.742c12.742,12.532,16.338,32.56,28.24,45.967c15.269,17.201,41.598,19.512,62.459,10.883
				c20.861-8.629,37.16-26.149,51.167-44.49c1.709-2.238,3.44-4.591,4.07-7.379c0.592-2.618,0.153-5.356-0.259-8.012
				c-3.972-25.6-5.234-51.66-3.756-77.549C687.944-15.196,535.456,2.504,463.921-7.376z"/>
			<path style="fill:none;stroke:#2F5177;stroke-width:0.5;stroke-miterlimit:10;" d="M761.768,129.148
				c-26.293-4.865-50.452,26.702-76.812,22.511c-16.663-2.649-30.052-19.092-40.659-36.224
				c-10.607-17.132-20.102-36.26-34.246-48.16c-11.28-9.49-24.733-13.617-38.072-15.084c-7.154-0.787-14.457-0.881-21.289-3.786
				c-12.735-5.414-22.214-20.108-27.496-36.302c-5.282-16.194-6.959-33.965-7.934-54.162c5.432,10.1,6.043,23.176,7.6,35.382
				c2.011,15.767,6.157,31.667,14.643,43.099c11.557,15.569,29.317,20.339,45.83,19.3c6.465-0.407,13.202-1.526,19.209,1.649
				c4.831,2.554,8.622,7.62,12.001,12.835c10.702,16.518,18.753,35.835,29.862,51.881s26.632,29.038,43.048,27.045
				c9.906-1.203,18.919-7.666,28.239-12.246c15.892-7.809,33.291-10.228,50.07-6.96c0.879-0.851,0.99-2.77,0.219-3.786"/>
			<g>
				<path style="fill:#2F5177;" d="M645.786,107.493c-0.862,1.1,1.459,2.761,3.567,5.235c0.725,0.851,1.719,1.764,2.764,1.442
					c1.215-0.374,1.43-2.23,0.722-3.329c-0.708-1.099-1.947-1.651-3.069-2.265C647.509,107.34,646.798,106.202,645.786,107.493z"/>
				<path style="fill:#2F5177;" d="M656.837,117.345c1.358,1.6,3.169,2.775,5.143,3.336c0.646,0.184,1.355,0.298,1.969,0.018
					c0.614-0.28,1.044-1.089,0.73-1.708c-0.12-0.236-0.325-0.41-0.527-0.573c-1.006-0.813-2.078-1.535-3.201-2.156
					c-0.615-0.34-1.291-0.659-1.981-0.565C658.278,115.792,657.619,116.469,656.837,117.345z"/>
				<path style="fill:#2F5177;" d="M669.411,123.229c1.57,0.406,3.026,1.219,4.606,1.582c1.579,0.363,3.439,0.166,4.489-1.121
					c0.282-0.346,0.499-0.795,0.427-1.243c-0.133-0.823-1.076-1.15-1.858-1.312c-1.166-0.243-2.332-0.485-3.498-0.728
					c-0.778-0.162-1.619-0.317-2.338,0.034C670.52,120.792,670.091,121.878,669.411,123.229z"/>
				<path style="fill:#2F5177;" d="M656.708,108.161c0.481,1.111,1.05,2.314,2.119,2.799c1.069,0.485,2.654-0.386,2.39-1.574
					c-0.171-0.769-0.953-1.168-1.51-1.7c-0.487-0.465-0.828-1.076-1.291-1.567c-0.463-0.492-1.133-0.871-1.768-0.683
					C656.013,105.624,655.957,106.427,656.708,108.161z"/>
				<path style="fill:#2F5177;" d="M666.621,115.171c1.005,0.441,1.796,1.3,2.784,1.78c0.988,0.48,2.408,0.404,2.885-0.622
					c0.561-1.205-0.604-2.497-1.713-3.168c-0.803-0.486-1.728-0.909-2.633-0.7C667.038,112.671,666.302,113.797,666.621,115.171z"/>
			</g>
			<path style="fill:none;stroke:#FFFFFF;stroke-width:0.5;stroke-miterlimit:10;" d="M641.839-17.875
				c16.864,6.921,31.594,19.418,41.555,35.255c5.59,8.888,9.719,18.789,16.06,27.106c16.747,21.963,45.573,28.994,72.336,31.187
				c-1.559,2.591-2.672,5.475-3.269,8.472c-24.102-2.795-46.921-16.187-61.772-36.255c-8.973-12.125-14.995-26.302-22.506-39.471
				c-7.511-13.169-17.099-25.846-30.436-32.195c1.781,6.725-0.803,14.473-6.195,18.577c5.893-1.992,12.073,1.958,16.612,6.369
				c10.98,10.671,18.188,24.798,26.864,37.584c8.676,12.786,19.89,24.974,34.49,28.495c14.582,3.517,30.87-2.052,44.3,4.856"/>
		</g>
		<g style="clip-path:url(#SVGID_00000033366967916583667570000016253348652920950678_);">
			<g>
				<path style="fill:none;stroke:#B5E0FF;stroke-width:0.5;stroke-miterlimit:10;" d="M519.856,523.44
					c-2.848-20.42,0.669-42.811,14.486-58.114c17.585-19.476,47.678-23.624,65.296-43.071c23.663-26.12,15.981-68.734,34.451-98.751
					c15.273-24.822,44.85-35.924,71.327-48.104c26.478-12.179,54.473-30.741,58.984-59.534"/>
				<path style="fill:none;stroke:#B5E0FF;stroke-width:0.5;stroke-miterlimit:10;" d="M526.027,531.678
					c-2.275-12.702-3.771-25.712-2.022-38.496c1.75-12.785,7.018-25.435,16.549-34.133c7.939-7.245,18.189-11.284,27.849-15.995
					c18.557-9.051,36.138-21.59,46.745-39.304c15.699-26.217,14.347-60.441,31.886-85.464
					c14.968-21.354,40.622-31.828,63.962-43.459s47.551-27.947,53.813-53.261"/>
			</g>
			<g>
				<path style="fill:#B5E0FF;" d="M548.89,521.414c-5.153-17-0.463-36.615,11.822-49.446c13.612-14.216,34.25-19.336,49.525-31.747
					c33.383-27.125,32.002-79.349,57.829-113.746c28.9-38.489,87.833-49.47,108.048-93.15
					c-11.457,101.474-14.442,203.903-8.914,305.872c-34.279-15.581-73.943-3.28-111.554-1.474
					C619.269,539.471,583.256,531.062,548.89,521.414z"/>
				<g>
					<g>
						<path style="fill:#FFFFFF;" d="M569.512,472.282c-1.875,0.672-2.983,2.686-3.244,4.661c-0.139,1.054,0.073,2.37,1.065,2.751
							c0.915,0.352,1.894-0.329,2.546-1.061c0.811-0.91,1.454-1.968,1.888-3.107c0.244-0.64,0.417-1.375,0.12-1.992
							c-0.255-0.528-0.818-0.856-1.395-0.959C569.915,472.473,569.322,472.567,569.512,472.282z"/>
						<path style="fill:#FFFFFF;" d="M576.035,469.936c0.373,0.064,0.756-0.119,1.015-0.395c0.259-0.276,0.412-0.633,0.533-0.991
							c0.181-0.536,0.285-1.182-0.07-1.622c-0.283-0.352-0.771-0.456-1.221-0.488c-0.571-0.042-1.184,0.008-1.643,0.349
							c-0.374,0.277-0.597,0.713-0.759,1.15c-0.181,0.49-0.295,1.059-0.045,1.518C574.214,470.135,575.157,469.786,576.035,469.936z
							"/>
						<path style="fill:#FFFFFF;" d="M576.39,475.716c0.512-0.121,0.952-0.51,1.135-1.003c0.183-0.493,0.104-1.075-0.205-1.501
							c-0.492-0.679-1.561-0.849-2.233-0.347c-0.283,0.212-0.488,0.516-0.619,0.845c-0.207,0.52-0.226,1.139,0.062,1.619
							C574.818,475.807,575.409,475.948,576.39,475.716z"/>
						<path style="fill:#FFFFFF;" d="M574.69,483.024c0.813-0.281,1.265-1.184,1.326-2.042c0.031-0.435-0.027-0.903-0.301-1.243
							c-0.448-0.558-1.351-0.567-1.947-0.171c-0.596,0.396-0.929,1.087-1.117,1.777c-0.118,0.433-0.191,0.89-0.107,1.332
							c0.084,0.441,0.346,0.867,0.752,1.058C573.702,483.926,574.251,483.826,574.69,483.024z"/>
						<path style="fill:#FFFFFF;" d="M581.322,478.541c0.735-0.386,1.352-0.994,1.749-1.723c0.245-0.45,0.404-1.014,0.162-1.466
							c-0.317-0.593-1.16-0.681-1.792-0.452c-1.077,0.391-1.837,1.522-1.794,2.667c0.013,0.343,0.104,0.706,0.356,0.939
							C580.364,478.838,580.894,478.765,581.322,478.541z"/>
						<path style="fill:#FFFFFF;" d="M581.32,471.619c1.055-0.081,1.97-1.036,2.006-2.093c0.009-0.254-0.03-0.517-0.159-0.737
							c-0.295-0.5-1.001-0.636-1.543-0.427c-0.542,0.209-0.938,0.682-1.238,1.178c-0.263,0.434-0.476,0.933-0.403,1.435
							C580.056,471.478,580.449,471.686,581.32,471.619z"/>
						<path style="fill:#FFFFFF;" d="M567.492,486.467c0.56-0.397,1.123-0.84,1.423-1.458c0.3-0.618,0.256-1.455-0.276-1.889
							c-0.453-0.37-1.131-0.348-1.661-0.1c-0.631,0.294-1.117,0.881-1.289,1.555c-0.101,0.395-0.094,0.828,0.081,1.196
							C565.943,486.139,566.3,486.431,567.492,486.467z"/>
					</g>
					<g>
						<path style="fill:#FFFFFF;" d="M662.93,379.892c-2.066,1.307-3.65,3.356-4.396,5.684c-0.289,0.904-0.455,1.881-0.229,2.803
							c0.226,0.922,0.913,1.775,1.839,1.982c0.703,0.157,1.436-0.065,2.089-0.368c1.484-0.69,2.751-1.815,3.682-3.161
							c0.982-1.421,1.6-3.261,0.998-4.88C666.311,380.332,664.029,379.197,662.93,379.892z"/>
						<path style="fill:#FFFFFF;" d="M658.508,407.392c1.568-0.953,2.813-2.427,3.492-4.132c0.194-0.489,0.345-1.019,0.251-1.536
							c-0.167-0.916-1.033-1.52-1.854-1.959c-0.555-0.297-1.149-0.572-1.777-0.572c-1.033,0.001-1.915,0.741-2.57,1.538
							c-1.018,1.238-1.751,2.806-1.607,4.403C654.587,406.731,656.076,408.871,658.508,407.392z"/>
						<path style="fill:#FFFFFF;" d="M671.883,398.563c1.723-0.91,3.182-2.52,3.445-4.451c0.263-1.931-0.969-4.086-2.885-4.443
							c-1.347-0.251-2.723,0.382-3.768,1.269c-1.025,0.871-1.842,2.033-2.111,3.35c-0.269,1.317,0.069,2.79,1.034,3.726
							C668.563,398.951,670.263,399.419,671.883,398.563z"/>
						<path style="fill:#FFFFFF;" d="M678.196,382.855c1.23-0.856,2.447-1.804,3.219-3.089c0.772-1.284,1.02-2.979,0.268-4.275
							c-0.853-1.469-2.9-2.037-4.455-1.353c-1.555,0.685-2.508,2.45-2.388,4.144C674.959,379.978,676.062,381.529,678.196,382.855z"
							/>
						<path style="fill:#FFFFFF;" d="M684.705,392.824c1.293-0.429,2.586-0.946,3.637-1.813c1.051-0.867,1.839-2.14,1.839-3.503
							c0-1.363-0.944-2.75-2.284-2.993c-0.649-0.117-1.326,0.03-1.922,0.313c-1.413,0.669-2.417,2.131-2.535,3.69
							C683.321,390.077,684.094,391.673,684.705,392.824z"/>
						<path style="fill:#FFFFFF;" d="M669.998,413.906c1.646-0.562,3.505-1.491,3.769-3.211c0.116-0.759-0.125-1.541-0.54-2.187
							c-0.798-1.245-2.369-2.042-3.799-1.665c-0.563,0.149-1.07,0.461-1.525,0.824c-1.331,1.062-2.297,2.714-2.14,4.41
							C665.921,413.773,667.232,414.849,669.998,413.906z"/>
						<path style="fill:#FFFFFF;" d="M683.533,404.56c1.144-0.631,2.188-1.539,2.699-2.742s0.384-2.727-0.536-3.656
							c-0.784-0.792-2.025-1.029-3.105-0.754c-1.08,0.276-2.004,1.008-2.685,1.89c-0.47,0.608-0.85,1.342-0.797,2.108
							C679.213,402.907,680.82,403.776,683.533,404.56z"/>
					</g>
				</g>
				<path style="fill:none;stroke:#FFFFFF;stroke-width:0.5;stroke-miterlimit:10;" d="M599.463,534.135
					c14.237-4.469,26.344-14.455,35.112-26.529c8.768-12.074,14.406-26.169,18.398-40.548c2.344-8.44,4.636-17.779,11.742-22.899
					c11.372-8.194,27.149-0.807,41.114-2.01c9.341-0.804,18.232-5.858,23.703-13.472c4.806-6.69,6.892-14.886,9.286-22.768
					c3.584-11.802,8.292-23.699,16.981-32.453c8.689-8.754,22.215-13.681,33.718-9.23c-9.326,9.01-23.197,12.798-31.025,23.137
					c-10.005,13.214-7.243,33.36-18.29,45.716c-7.153,8-18.508,10.752-29.22,11.399c-10.712,0.647-21.603-0.372-32.086,1.924
					c-10.483,2.296-20.966,8.923-23.763,19.284c-1.694,6.275-0.354,12.921-0.482,19.42c-0.161,8.2-2.677,16.184-5.871,23.738
					c-4.021,9.51-9.575,18.987-18.532,24.123c-8.957,5.137-21.993,4.287-27.884-4.194c21.115-1.107,40.858-15.967,47.764-35.952
					c2.084-6.03,3.081-12.408,5.37-18.363c2.289-5.956,6.215-11.709,12.127-14.108c12.42-5.04,28.841,6.091,39.055-2.59
					c3.156-2.683,4.804-6.745,5.738-10.78c2.529-10.934,1.52-24.366,10.565-31.01c6.403-4.704,15.157-3.711,23.009-4.93
					c19.826-3.079,34.058-20.614,43.7-38.21"/>
			</g>
			<g>
				<path style="fill:#FFD37E;" d="M775.356,386.661c0,0-78.106-23.932-92.602-63.376c-14.496-39.444,28.413-43.386,30.317-58.618
					c3.243-25.943-4.736-49.976,46.22-50.82C810.245,213.003,775.356,386.661,775.356,386.661z"/>
				<path style="fill:none;stroke:#C77A4E;stroke-width:0.5;stroke-miterlimit:10;" d="M754.572,368.565
					c0,0-50.357-25.178-51.998-55.83c-1.642-30.652,24.083-19.157,26.82-36.125c2.737-16.968-8.21-48.167,24.631-54.735
					c32.841-6.568,2.737,6.021,2.737,6.021s-16.968-7.663-21.894,13.684c-4.926,21.347,2.282,35.123-8.118,42.786
					c-10.4,7.663-22.663,8.805-24.853,25.773c-2.189,16.968,54.001,62.899,54.001,62.899"/>
			</g>
		</g>
		<g style="clip-path:url(#SVGID_00000033366967916583667570000016253348652920950678_);">
			<path style="fill:#DBF0FF;" d="M169.125,286.205c0.188,9.685-4.319,19.354-11.858,25.436c-2.759,2.226-5.918,4.02-8.205,6.729
				c-3.878,4.594-4.622,11.16-3.635,17.091c2.314,13.909,13.914,25.785,27.764,28.426c4.819,0.919,10.102,0.723,14.234-1.92
				c4.133-2.643,6.604-8.222,4.589-12.695c-1.607-3.566-5.449-5.571-7.688-8.778c-3.033-4.346-2.684-10.162-1.736-15.377
				c2.165-11.909,6.609-25.02,0.397-35.409C180.073,284.835,173.07,281.397,169.125,286.205z"/>
			<path style="fill:#DBF0FF;" d="M153.254,302.05c1.615,0.148,3.18-0.835,4.107-2.166c0.927-1.331,1.314-2.962,1.542-4.568
				c0.222-1.562,0.311-3.165-0.004-4.711c-0.714-3.507-3.662-6.451-7.17-7.162c-0.768-0.156-1.575-0.211-2.33,0.002
				c-1.935,0.545-2.981,2.633-3.476,4.581c-0.799,3.149-0.735,6.617,0.758,9.503C148.175,300.415,151.202,301.861,153.254,302.05z"
				/>
			<path style="fill:#DBF0FF;" d="M138.082,290.575c0.968-1.186,1.751-2.573,1.96-4.089s-0.225-3.172-1.364-4.195
				c-1.138-1.023-3.016-1.236-4.214-0.282c-0.701,0.558-1.099,1.415-1.333,2.279c-0.478,1.762-0.327,3.766,0.747,5.242
				C134.954,291.005,137.089,291.791,138.082,290.575z"/>
			<path style="fill:#DBF0FF;" d="M146.196,309.419c0.126-1.949-0.26-4.035-1.578-5.476c-1.318-1.441-3.731-1.963-5.274-0.767
				c-1.618,1.255-1.657,3.747-0.902,5.65c0.668,1.683,1.919,3.223,3.631,3.813C143.785,313.23,145.988,312.63,146.196,309.419z"/>
		</g>
		<g style="clip-path:url(#SVGID_00000033366967916583667570000016253348652920950678_);">
			<path style="fill:#FFD37E;" d="M-0.493-4.458C4.801,35.505,45.908,64.41,48.698,104.625c1.313,18.931-6.281,37.561-5.559,56.523
				c0.885,23.249,14.178,45.045,13.015,68.281c-0.707,14.13-6.761,27.468-14.087,39.571c-15.789,26.086-37.685,47.924-60.655,67.979
				c2.675-107.465-19.093-217.104,7.198-321.337C-9.268,7.23-6.405-1.747-0.493-4.458z"/>
			<path style="fill:#FFFFFF;" d="M39.577,74.231c-5.671-4.772-11.426-9.458-17.264-14.038c0.598,0.154,1.192,0.31,1.788,0.47
				c2.786,1.465,5.56,2.951,8.322,4.457c1.306,1.014,2.606,2.031,3.91,3.046c-0.215-0.38-0.428-0.761-0.646-1.14
				c-0.164-0.128-0.327-0.256-0.491-0.384c0.135,0.075,0.267,0.153,0.402,0.227c-0.159-0.276-0.314-0.552-0.475-0.828
				c-0.809-0.446-1.614-0.898-2.426-1.341c-1.088-0.845-2.176-1.689-3.265-2.533c1.402,0.419,2.793,0.866,4.179,1.326
				c-0.131-0.218-0.259-0.436-0.391-0.653c-1.616-0.529-3.239-1.039-4.875-1.515C14.152,50.328-0.123,39.398-14.399,28.587
				c-0.039,0.18-0.078,0.36-0.117,0.539c13.881,10.513,27.761,21.138,41.565,31.827c-0.92-0.26-1.842-0.513-2.767-0.76
				c-1.964-1.033-3.935-2.056-5.911-3.068C9.101,49.967-0.357,43.064-9.959,36.45c-1.833-1.262-3.59-2.432-5.364-3.422
				c-0.035,0.172-0.07,0.344-0.105,0.516c1.711,0.964,3.412,2.096,5.186,3.317c8.861,6.104,17.602,12.455,26.184,19.026
				C5.187,50.439-5.729,45.31-16.765,40.503c-0.031,0.169-0.059,0.339-0.09,0.508c11.807,5.146,23.477,10.66,34.958,16.54
				c0.678,0.523,1.356,1.049,2.031,1.575c-3.972-0.989-7.958-1.893-11.911-2.789c-8.831-2.003-17.847-4.049-26.498-6.988
				c-0.027,0.167-0.056,0.333-0.082,0.5c8.648,2.931,17.651,4.976,26.469,6.976c4.313,0.978,8.666,1.965,12.997,3.062
				c6.451,5.043,12.796,10.221,19.045,15.498C39.964,74.998,39.77,74.615,39.577,74.231z M28.116,61.78
				c0.625,0.484,1.25,0.968,1.874,1.453c-1.223-0.66-2.447-1.314-3.674-1.965C26.917,61.435,27.517,61.606,28.116,61.78z
				 M21.333,59.426c-0.267-0.208-0.536-0.418-0.803-0.626c0.533,0.276,1.063,0.551,1.596,0.829
				C21.861,59.561,21.598,59.494,21.333,59.426z"/>
			<g>
				<path style="fill:#FFFFFF;" d="M43.14,245.901c-1.181-0.061-2.297-0.933-2.565-2.085c-0.267-1.152,0.404-2.47,1.52-2.859
					c1.116-0.389,2.509,0.286,2.825,1.425c0.203,0.734-0.018,1.533-0.424,2.177C44.092,245.204,43.519,245.721,43.14,245.901z"/>
				<path style="fill:#FFFFFF;" d="M50.079,240.805c-0.907,0.06-1.829-0.43-2.286-1.215c-0.414-0.711-0.433-1.65-0.001-2.35
					c0.432-0.7,1.315-1.108,2.119-0.932c0.804,0.176,1.449,0.953,1.424,1.775C51.308,238.989,50.584,239.703,50.079,240.805z"/>
				<path style="fill:#FFFFFF;" d="M44.305,235.863c-1.036-0.04-2.042-0.582-2.645-1.426c-0.603-0.844-0.79-1.971-0.491-2.964
					c0.223-0.741,0.718-1.411,1.398-1.78c0.68-0.369,1.545-0.412,2.229-0.051c0.681,0.359,1.122,1.064,1.351,1.799
					c0.26,0.831,0.279,1.756-0.057,2.56C45.754,234.804,45.034,235.464,44.305,235.863z"/>
				<path style="fill:#FFFFFF;" d="M52.018,232.588c-0.709,0.044-1.342-0.586-1.457-1.287c-0.114-0.701,0.201-1.418,0.677-1.946
					c0.294-0.326,0.673-0.606,1.11-0.656c0.777-0.089,1.503,0.681,1.447,1.462C53.738,230.941,52.998,231.581,52.018,232.588z"/>
				<path style="fill:#FFFFFF;" d="M37.373,239.3c-0.954-0.696-1.48-1.934-1.319-3.104c0.04-0.293,0.128-0.594,0.335-0.805
					c0.206-0.21,0.507-0.304,0.801-0.313c1.029-0.032,1.908,0.988,1.88,2.017C39.043,238.123,38.25,239.037,37.373,239.3z"/>
				<path style="fill:#FFFFFF;" d="M46.732,223.712c-0.916-0.928-1.18-2.349-1-3.641c0.144-1.04,0.666-2.159,1.668-2.473
					c0.693-0.217,1.48,0.022,2.015,0.514c0.534,0.491,0.833,1.202,0.929,1.921c0.067,0.502,0.035,1.038-0.217,1.477
					c-0.145,0.253-0.356,0.462-0.584,0.643C48.596,222.905,47.305,223.207,46.732,223.712z"/>
				<path style="fill:#FFFFFF;" d="M37.895,224.676c-1.264-0.436-1.785-2.009-1.603-3.333c0.076-0.556,0.264-1.13,0.693-1.492
					c0.799-0.674,2.092-0.298,2.795,0.476c0.663,0.73,0.975,1.765,0.826,2.74C40.457,224.043,39.759,225.319,37.895,224.676z"/>
			</g>
			<path style="fill:none;stroke:#C77A4E;stroke-width:0.5;stroke-miterlimit:10;" d="M-17.495-6.56
				C-19.053,20.191-5.668,45.213,6.256,69.21c11.923,23.997,23.002,50.872,16.604,76.892c-2.278,9.266-6.759,18.346-5.792,27.839
				c0.972,9.549,7.265,17.59,11.001,26.432c6.75,15.978,4.799,34.945-3.489,50.183c-8.288,15.237-22.429,26.839-38.312,33.812
				c15.399-16.6,27.312-36.418,34.748-57.805c2.377-6.837,4.319-14.156,2.905-21.255c-2.015-10.116-10.413-17.865-13.391-27.74
				c-6.928-22.971,17.234-45.222,14.885-69.1c-1.038-10.548-7.144-19.802-12.725-28.812C2.91,63.866-5.773,47.4-13.277,30.413
				C-16.62,22.845-19.492,13.286-17.495-6.56z"/>
		</g>
		<g style="clip-path:url(#SVGID_00000033366967916583667570000016253348652920950678_);">
			<path style="fill:#78B7FF;" d="M181.89-6.105c6.178,18.62,23.931,33.374,44.304,36.82c16.104,2.724,32.625-1.169,48.971-0.501
				c31.736,1.297,62.104,19.669,93.369,14.374c11.281-1.911,21.759-6.843,31.378-12.716c16.503-10.075,30.973-23.099,42.41-38.174
				c-42.732-0.691-85.316-0.131-128.052-0.583C268.508-7.37,223.012-10.126,181.89-6.105z"/>
			<path style="fill:none;stroke:#2F5177;stroke-width:0.5;stroke-miterlimit:10;" d="M166.497-13.35
				c2.173,16.389,16.069,30.814,33.167,34.428c18.332,3.876,36.897-3.782,55.439-6.633c16.368-2.517,33.382-1.217,49.107,3.752
				c7.204,2.276,14.24,5.33,21.791,6.119c12.408,1.296,24.803-3.788,34.442-11.267c9.638-7.479,16.968-17.208,25.703-27.267
				c1.732,0.984,3.464,1.967,5.196,2.951c-6.209,11.432-13.048,23.499-24.92,29.801c-7.62,4.045-16.559,5.254-25.294,5.638
				c-14.739,0.647-29.581-0.856-43.837-4.44c-7.9-1.986-15.686-4.618-23.824-5.361c-25.551-2.33-49.901,14.148-75.453,11.824
				C177.57,24.337,159.277,9.145,166.497-13.35z"/>
		</g>
		<g style="clip-path:url(#SVGID_00000033366967916583667570000016253348652920950678_);">
			<g>
				<path style="fill:#FF9582;" d="M503.809-9.447c0.024-0.306,0.045-0.613,0.082-0.919c0.208-1.711,1.804-2.808,3.874-3.339
					c0.273-0.291,0.545-0.583,0.819-0.873c0.501,0.168,0.984,0.354,1.481,0.526c0.143-0.009,0.286-0.017,0.43-0.021
					c0.071-0.864,0.426-0.865,0.55-0.009c3.285,0.02,6.616,1.137,7.398,3.213c47.849,20.104,70.526,62.063,53.543,97.542
					c-26.997-20.48-47.803-53.692-56.867-83.097c-2.067,0.423-4.469,0.36-6.414-0.271c-3.317,24.75-11.341,52.843-37.368,67.284
					C461.68,42.444,481.235,15.172,503.809-9.447z"/>
				<g>
					<path style="fill:#FFFFFF;" d="M511.402-13.511c-0.297-0.207-0.601-0.414-0.903-0.621c0.035-0.426,0.495-0.297,0.546,0.048
						c0.343,0.002,0.685,0.023,1.025,0.049c0.514,0.474,1.035,0.946,1.541,1.424c22.12,15.631,38.598,31.587,49.058,47.522
						c8.62,13.131,13.211,26.292,13.686,38.93c-0.21,0.986-0.437,1.971-0.702,2.952c0.189-13.489-4.403-27.637-13.668-41.752
						c-9.908-15.093-25.233-30.207-45.657-45.047c25.046,24.353,42.929,51.429,51.957,78.774c1.786,5.408,3.448,11.535,3.435,17.696
						c-0.249-0.19-0.494-0.386-0.742-0.578c-0.085-5.94-1.692-11.838-3.417-17.063c-9.285-28.13-27.964-55.976-54.178-80.855
						c0.792,1.029,1.516,2.046,2.204,3.01c18.223,25.546,40.081,58.487,53.016,93.024c-0.331-0.269-0.663-0.539-0.992-0.813
						c-7.494-19.972-21.412-48.203-52.701-92.068C513.862-10.349,512.726-11.941,511.402-13.511z"/>
					<path style="fill:#FFFFFF;" d="M507.765-13.705c0.273-0.291,0.545-0.583,0.819-0.873c0.143,0.048,0.282,0.1,0.423,0.15
						c-1.798,1.604-3.527,3.252-5.194,4.942c0.022-0.293,0.043-0.587,0.078-0.88c0.004-0.032,0.016-0.06,0.021-0.092
						c1.043-1.036,2.119-2.05,3.211-3.054C507.332-13.582,507.544-13.649,507.765-13.705z"/>
					<path style="fill:#FFFFFF;" d="M472.247,70.055c-0.305,0.176-0.601,0.36-0.911,0.532c-0.032-0.094-0.056-0.187-0.088-0.281
						c19.371-26.227,32.03-54.061,37.661-82.86c-5.384,10.521-10.852,21.335-15.587,32.137c-2.497,5.697-4.849,11.527-7.124,17.165
						c-4.459,11.05-9.059,22.425-14.991,33.426c-0.104-0.311-0.194-0.622-0.29-0.933c5.723-10.745,10.213-21.833,14.563-32.615
						c2.276-5.64,4.63-11.472,7.129-17.173c4.994-11.395,10.803-22.798,16.466-33.857c0.287,0.103,0.574,0.205,0.862,0.306
						C504.49,15.156,491.824,43.429,472.247,70.055z"/>
					<path style="fill:#FFFFFF;" d="M489.28,7.623c2.099-2.717,4.296-5.41,6.563-8.075c-7.152,9.087-12.793,19.301-17.05,30.866
						c-4.276,11.616-6.746,23.345-8.712,35.794c-0.157-0.657-0.297-1.314-0.424-1.97c1.921-11.756,4.353-22.896,8.416-33.937
						C481.096,22.087,484.82,14.558,489.28,7.623z"/>
				</g>
			</g>
			<g>
				<path style="fill:#FFB282;" d="M504.032-9.808c0.009-0.307,0.022-0.614,0.018-0.922c-0.022-1.724-1.492-2.986-3.493-3.736
					c-0.24-0.318-0.479-0.638-0.72-0.956c-0.517,0.113-1.016,0.246-1.529,0.363c-0.141-0.024-0.282-0.048-0.425-0.068
					c0.023-0.867-0.33-0.905-0.546-0.068c-3.268-0.334-6.7,0.419-7.7,2.399c-49.733,14.843-76.79,54.119-63.72,91.219
					c29.043-17.458,53.299-48.241,65.472-76.501c2.01,0.643,4.405,0.838,6.406,0.42c0.637,24.963,5.593,53.756,29.917,70.912
					C540.338,46.313,523.828,17.097,504.032-9.808z"/>
				<g>
					<path style="fill:#FFFFFF;" d="M496.92-14.664c0.318-0.174,0.642-0.347,0.964-0.52c0.011-0.427-0.461-0.349-0.548-0.011
						c-0.341-0.035-0.683-0.051-1.025-0.062c-0.563,0.416-1.13,0.83-1.685,1.251c-23.672,13.162-41.771,27.254-53.884,41.972
						c-9.982,12.128-15.961,24.719-17.793,37.233c0.103,1.003,0.222,2.007,0.38,3.011c1.263-13.431,7.349-27.004,18.078-40.04
						c11.473-13.94,28.335-27.318,50.236-39.877c-27.52,21.519-48.21,46.515-60.126,72.73c-2.357,5.185-4.668,11.097-5.318,17.224
						c0.268-0.162,0.533-0.33,0.8-0.495c0.724-5.897,2.955-11.588,5.232-16.597c12.256-26.969,33.82-52.645,62.558-74.561
						c-0.898,0.938-1.727,1.871-2.515,2.756c-20.864,23.439-46.137,53.838-62.711,86.784c0.358-0.232,0.717-0.465,1.073-0.701
						c9.598-19.05,26.471-45.621,62.295-85.868C494.135-11.785,495.435-13.245,496.92-14.664z"/>
					<path style="fill:#FFFFFF;" d="M500.557-14.466c-0.24-0.318-0.479-0.638-0.72-0.956c-0.148,0.032-0.291,0.069-0.437,0.104
						c1.615,1.788,3.157,3.613,4.633,5.471c0.009-0.294,0.021-0.588,0.017-0.883c0-0.032-0.01-0.062-0.011-0.094
						c-0.925-1.142-1.886-2.266-2.864-3.382C500.974-14.297,500.77-14.386,500.557-14.466z"/>
					<path style="fill:#FFFFFF;" d="M526.863,72.627c0.285,0.208,0.559,0.422,0.849,0.627c0.042-0.09,0.076-0.18,0.117-0.27
						c-16.439-28.158-26.032-57.191-28.533-86.429c4.222,11.039,8.495,22.378,12.041,33.627c1.87,5.932,3.582,11.981,5.237,17.832
						c3.245,11.466,6.595,23.269,11.31,34.844c0.136-0.298,0.259-0.597,0.389-0.896c-4.535-11.298-7.806-22.805-10.972-33.992
						c-1.656-5.852-3.37-11.904-5.241-17.84c-3.74-11.866-8.289-23.827-12.73-35.432c-0.296,0.071-0.593,0.142-0.89,0.212
						C500.71,14.58,510.262,44.051,526.863,72.627z"/>
					<path style="fill:#FFFFFF;" d="M516.641,8.726c-1.795-2.927-3.689-5.84-5.657-8.734c6.133,9.804,10.643,20.564,13.632,32.52
						c3.002,12.008,4.197,23.935,4.813,36.523c0.227-0.637,0.437-1.274,0.633-1.913c-0.646-11.894-1.865-23.232-4.718-34.646
						C523.223,23.987,520.33,16.101,516.641,8.726z"/>
				</g>
			</g>
		</g>
	</g>
</g>
</svg>
